<?xml version="1.0" standalone="no"?>
<!DOCTYPE svg PUBLIC "-//W3C//DTD SVG 20010904//EN"
 "http://www.w3.org/TR/2001/REC-SVG-20010904/DTD/svg10.dtd">
<svg version="1.0" xmlns="http://www.w3.org/2000/svg"
 width="800.000000pt" height="800.000000pt" viewBox="0 0 800.000000 800.000000"
 preserveAspectRatio="xMidYMid meet">
<metadata>
Created by potrace 1.14, written by Peter Selinger 2001-2017
</metadata>
<g transform="translate(0.000000,800.000000) scale(0.100000,-0.100000)"
fill="#000000" stroke="none">
<path d="M1335 7870 c-159 -24 -221 -40 -336 -85 -224 -90 -431 -239 -564
-409 -16 -22 -35 -44 -40 -50 -76 -83 -214 -376 -239 -509 -2 -12 -7 -33 -10
-47 -4 -14 -9 -41 -13 -60 -4 -19 -8 -1227 -9 -2685 -3 -2561 -3 -2653 16
-2753 77 -419 314 -760 675 -969 143 -83 350 -153 504 -171 85 -9 5299 -9
5369 0 446 61 845 349 1048 758 40 80 97 236 108 293 2 12 7 33 10 47 3 14 9
41 13 60 4 19 8 1228 10 2685 2 2560 2 2653 -17 2753 -62 339 -218 611 -475
829 -175 148 -407 259 -620 297 -16 3 -41 9 -55 13 -33 10 -5311 13 -5375 3z"/>
</g>
</svg>
