<?xml version="1.0" standalone="no"?>
<!DOCTYPE svg PUBLIC "-//W3C//DTD SVG 20010904//EN"
 "http://www.w3.org/TR/2001/REC-SVG-20010904/DTD/svg10.dtd">
<svg version="1.0" xmlns="http://www.w3.org/2000/svg"
 width="680.000000pt" height="680.000000pt" viewBox="0 0 680.000000 680.000000"
 preserveAspectRatio="xMidYMid meet">
<metadata>
Created by potrace 1.14, written by Peter Selinger 2001-2017
</metadata>
<g transform="translate(0.000000,680.000000) scale(0.100000,-0.100000)"
fill="#000000" stroke="none">
<path d="M3209 6056 c-2 -3 -33 -7 -69 -10 -36 -3 -76 -8 -90 -10 -14 -3 -42
-7 -62 -10 -146 -22 -426 -114 -593 -196 -145 -71 -195 -104 -367 -241 -73
-59 -191 -148 -263 -198 -71 -50 -137 -95 -145 -101 -8 -6 -36 -25 -62 -43
-66 -46 -826 -603 -854 -626 -24 -20 -254 -172 -334 -221 -119 -72 -197 -107
-286 -130 -43 -11 -79 -22 -81 -24 -10 -10 12 -36 32 -36 78 0 292 -98 391
-179 6 -4 69 -48 140 -96 71 -48 137 -95 147 -103 9 -8 26 -20 36 -26 11 -6
79 -54 153 -107 73 -53 241 -173 373 -268 132 -94 247 -177 255 -184 62 -49
375 -256 502 -330 255 -150 689 -338 873 -377 66 -15 68 -15 140 -24 28 -4 61
-9 75 -11 48 -9 206 -19 300 -19 162 0 268 14 523 69 31 7 61 16 82 25 11 4
49 18 85 30 81 27 156 59 285 120 55 25 115 53 133 61 17 8 32 17 32 21 0 5 7
8 15 8 22 0 236 128 473 281 117 77 217 139 222 139 4 0 10 4 12 8 2 5 75 53
163 107 210 129 364 234 405 275 3 3 34 30 70 60 35 30 72 62 80 70 30 29 123
105 164 135 23 16 43 32 46 36 3 3 32 25 65 48 195 135 301 192 411 217 84 19
114 31 114 43 0 11 -62 31 -95 31 -20 0 -102 28 -165 57 -64 29 -234 135 -325
203 -113 83 -150 117 -349 316 -155 155 -220 207 -490 394 -36 25 -65 48 -66
53 0 4 -4 7 -8 7 -5 0 -49 24 -98 53 -91 54 -172 93 -349 167 -55 23 -196 89
-315 147 -253 124 -343 164 -545 244 -82 33 -159 64 -170 69 -19 8 -89 32
-110 36 -5 1 -44 10 -85 20 -68 15 -409 31 -421 20z m306 -50 c17 -2 44 -6 60
-10 17 -3 40 -8 53 -11 47 -9 78 -19 136 -46 27 -13 52 -52 42 -67 -8 -13
-178 -4 -291 14 -75 12 -289 10 -384 -3 -152 -21 -411 -94 -496 -141 -16 -9
-31 -15 -33 -13 -2 2 -108 -49 -237 -114 -254 -128 -275 -133 -250 -62 16 47
33 67 108 124 61 47 241 143 337 180 115 44 250 87 315 99 11 2 54 10 95 18
94 19 136 24 230 32 41 3 76 8 78 9 4 3 191 -4 237 -9z m345 -282 c83 -34 104
-72 96 -172 -3 -35 -8 -67 -10 -71 -2 -3 -7 -27 -11 -51 -4 -25 -10 -65 -15
-90 -19 -99 0 -232 49 -356 29 -76 10 -89 -72 -48 -103 52 -191 124 -268 221
-63 79 -121 231 -124 327 -5 129 33 207 119 246 50 23 173 20 236 -6z m-473
-33 c24 -2 48 -74 58 -171 17 -167 62 -272 161 -379 72 -79 85 -103 64 -116
-20 -12 -193 114 -261 189 -90 100 -142 242 -143 389 -1 84 21 100 121 88z
m-207 -40 c18 -18 29 -42 34 -75 33 -218 99 -336 256 -456 102 -79 98 -89 -45
-105 -27 -3 -57 -8 -65 -10 -8 -3 -31 -7 -50 -9 -19 -3 -48 -9 -65 -13 -16 -4
-75 -7 -130 -7 -227 1 -393 89 -522 276 -73 106 -82 145 -49 204 28 51 88 95
183 134 109 46 283 88 362 88 57 0 68 -3 91 -27z m1103 -53 c94 -35 165 -96
203 -174 41 -83 26 -139 -90 -330 -72 -120 -116 -253 -131 -398 -7 -60 -21
-66 -58 -26 -47 51 -157 187 -157 194 0 4 -9 28 -21 54 -36 81 -38 86 -49 131
-33 127 -31 283 4 401 23 76 55 135 84 153 35 23 148 20 215 -5z m767 -215
c70 -30 310 -174 310 -185 0 -4 5 -8 11 -8 21 0 270 -198 398 -315 45 -42 81
-87 85 -108 2 -7 6 -20 10 -29 11 -24 4 -49 -16 -62 -13 -8 -25 -6 -50 8 -36
21 -121 84 -153 113 -11 11 -67 55 -125 98 -58 44 -107 82 -110 85 -17 19
-327 232 -403 277 -112 68 -147 98 -140 124 6 23 56 39 98 31 17 -3 55 -16 85
-29z m-2560 -88 c16 -8 37 -28 47 -45 9 -16 21 -30 25 -30 4 0 8 -5 8 -10 0
-25 116 -141 178 -177 53 -31 126 -59 176 -67 21 -4 41 -8 45 -10 3 -2 31 -7
60 -10 30 -4 57 -8 59 -11 11 -10 -13 -43 -53 -74 -25 -18 -59 -46 -77 -62
-81 -72 -207 -109 -358 -105 -138 4 -235 48 -338 155 -74 77 -79 116 -28 224
60 130 154 237 209 237 10 0 31 -7 47 -15z m2270 -75 c23 -12 46 -32 52 -45 9
-21 7 -31 -16 -65 -14 -22 -57 -68 -94 -102 -206 -191 -226 -221 -298 -435
-21 -62 -41 -113 -46 -113 -4 0 -20 21 -35 48 -24 41 -28 57 -27 122 2 120 84
338 167 444 112 144 208 191 297 146z m299 -159 c90 -46 166 -148 166 -223 0
-21 -7 -44 -15 -52 -8 -8 -70 -29 -138 -46 -332 -83 -489 -197 -614 -446 -35
-70 -44 -82 -55 -71 -15 15 -21 109 -10 184 7 54 58 216 84 268 77 154 304
368 433 408 33 10 107 -1 149 -22z m-3190 -23 c4 -12 -1 -50 -15 -97 -12 -42
-25 -90 -27 -106 -3 -17 -8 -39 -10 -50 -3 -11 -8 -40 -11 -65 -3 -25 -8 -54
-10 -66 -2 -12 -7 -45 -11 -75 -3 -30 -8 -65 -11 -79 -2 -14 -6 -34 -8 -45 -2
-11 -14 -58 -26 -105 -12 -47 -24 -98 -27 -115 -33 -224 -180 -450 -318 -491
-92 -26 -155 -21 -254 21 -213 89 -467 301 -499 415 -10 35 -3 99 14 136 21
45 125 152 169 174 17 8 38 21 48 29 9 8 17 10 17 5 0 -5 4 -4 8 1 7 11 62 39
192 97 189 85 420 209 428 230 2 4 8 8 13 8 10 0 9 -1 144 115 50 43 103 83
120 90 34 15 62 5 74 -27z m1854 -212 c20 -10 48 -32 62 -48 l25 -30 -22 -30
c-52 -68 -81 -126 -93 -186 -8 -35 -16 -66 -19 -69 -9 -9 -76 38 -101 71 -53
69 -74 152 -62 238 7 48 24 77 50 87 25 9 105 -7 160 -33z m-252 22 c1 -7 1
-22 0 -33 -7 -91 -7 -143 1 -158 5 -10 8 -26 6 -35 -3 -12 -12 -3 -28 28 -24
46 -34 153 -18 193 8 20 37 23 39 5z m-100 -32 c0 -11 2 -30 4 -41 2 -11 6
-38 10 -60 3 -22 19 -66 35 -97 21 -42 26 -60 18 -63 -7 -2 -42 -11 -77 -20
-54 -13 -118 -47 -141 -75 -17 -20 -72 -50 -115 -62 -58 -16 -132 -9 -172 17
-21 14 -24 22 -19 48 21 106 158 280 256 326 19 9 37 19 40 23 9 11 114 34
138 30 14 -3 22 -12 23 -26z m-1111 -72 c30 -8 84 -27 120 -41 71 -28 66 -27
130 -37 100 -17 169 -12 285 20 44 12 75 15 75 7 -1 -20 -108 -195 -141 -230
-142 -153 -334 -218 -504 -173 -74 20 -119 46 -137 78 -34 64 -1 316 47 365
29 28 55 31 125 11z m1643 -36 c3 -7 -23 -40 -58 -73 -34 -33 -70 -79 -81
-102 -18 -41 -34 -55 -34 -32 0 20 35 109 42 109 5 0 8 5 8 12 0 7 19 32 42
55 42 43 72 54 81 31z m1364 -6 c31 -3 97 -64 119 -110 32 -67 28 -120 -12
-160 -28 -28 -84 -40 -203 -46 -202 -10 -286 -28 -402 -86 -101 -51 -196 -136
-297 -263 -52 -66 -67 -64 -66 11 1 81 113 297 207 399 41 45 149 133 162 133
4 0 19 9 34 19 91 65 307 113 458 103z m-1265 -72 c40 -31 32 -61 -27 -90 -54
-27 -135 -103 -135 -126 0 -8 -4 -14 -8 -14 -5 0 -15 -16 -22 -35 -16 -41 -39
-66 -41 -44 -1 8 -3 25 -4 39 -9 92 75 237 160 276 40 18 48 17 77 -6z m105
-157 c25 -17 41 -72 24 -83 -7 -4 -42 -12 -78 -19 -85 -16 -137 -42 -197 -103
-58 -58 -78 -53 -52 14 40 102 107 170 196 201 47 16 70 14 107 -10z m-3472
-9 c9 -9 15 -28 13 -43 -2 -21 -8 -26 -32 -26 -36 0 -58 30 -45 63 10 26 41
29 64 6z m2858 -10 c34 -9 65 -18 70 -21 8 -5 -24 -65 -49 -92 -11 -12 -16
-12 -28 -2 -8 7 -41 15 -73 18 -59 5 -108 26 -117 50 -5 12 32 44 64 56 27 10
71 7 133 -9z m-737 -65 c-13 -86 -155 -251 -263 -306 -100 -51 -200 -72 -288
-59 -38 5 -56 19 -76 59 -23 44 -22 123 2 137 7 5 60 8 118 8 218 -2 262 13
446 153 28 21 54 39 58 39 5 0 6 -14 3 -31z m-2206 1 c32 -32 25 -66 -17 -89
-33 -17 -60 -13 -77 10 -18 27 -4 64 33 84 34 19 38 18 61 -5z m3064 -9 c6
-10 -31 -47 -40 -39 -6 7 17 48 28 48 4 0 9 -4 12 -9z m-487 -34 c-48 -72
-225 -87 -235 -20 -4 29 25 44 69 34 19 -4 43 -7 54 -5 11 1 37 5 58 7 21 3
41 8 44 11 14 14 23 -8 10 -27z m2866 22 c12 -6 29 -20 36 -32 17 -27 22 -106
9 -132 -13 -24 -47 -55 -62 -56 -6 0 -19 -2 -28 -4 -28 -5 -47 17 -56 66 -24
128 19 196 101 158z m-2694 -24 c7 -8 11 -20 8 -29 -7 -19 -64 -49 -77 -41
-13 8 -13 39 2 70 12 27 38 27 67 0z m375 -43 c3 -5 7 -22 10 -38 3 -16 8 -40
11 -54 3 -14 1 -38 -3 -55 -8 -28 -11 -30 -50 -27 -23 2 -54 7 -69 11 -29 8
-28 6 -24 85 0 14 19 42 41 65 34 34 44 39 60 31 10 -6 21 -14 24 -18z m490 9
c9 -10 19 -29 21 -42 3 -13 9 -40 12 -59 8 -40 9 -180 1 -225 -29 -164 -88
-215 -173 -151 -67 51 -95 59 -208 61 -59 2 -111 5 -114 9 -4 3 -1 16 5 29 6
12 31 69 56 126 46 104 79 159 103 174 6 4 18 14 26 21 19 19 95 57 126 63 14
2 28 6 30 9 2 2 25 4 51 4 33 0 52 -6 64 -19z m1121 -42 c94 -34 155 -83 181
-146 22 -51 18 -96 -10 -122 -23 -22 -31 -23 -103 -18 -76 6 -112 11 -163 23
-63 15 -253 21 -325 11 -52 -7 -137 -28 -150 -37 -5 -4 -25 -12 -44 -18 -33
-12 -178 -105 -216 -139 -22 -20 -71 -53 -79 -53 -3 0 -1 14 4 30 5 17 8 31 8
33 -5 10 44 93 84 143 111 143 232 229 378 273 95 28 109 31 170 37 30 3 56 7
58 9 10 9 158 -9 207 -26z m-2165 0 c0 -5 -18 -27 -40 -48 -41 -39 -99 -63
-135 -56 -11 2 -23 4 -26 4 -9 1 -18 51 -10 55 3 2 22 7 41 10 38 6 136 39
146 49 9 8 24 -1 24 -14z m3056 -36 c8 -29 -5 -45 -40 -48 -49 -6 -60 57 -13
74 30 11 46 3 53 -26z m-4391 -33 c-2 -16 -14 -40 -25 -52 l-21 -23 6 35 c11
70 48 107 40 40z m929 8 c-66 -128 -136 -203 -239 -253 -69 -34 -169 -65 -210
-65 -29 0 -65 28 -59 44 5 13 41 28 55 23 3 -1 12 3 20 9 8 6 32 15 54 19 57
11 53 11 127 34 36 12 75 30 86 39 11 9 32 26 47 36 14 11 49 48 76 83 28 35
53 63 55 63 3 0 -3 -15 -12 -32z m448 -34 c21 -43 90 -114 110 -114 18 0 95
-41 120 -64 32 -31 65 -113 51 -127 -17 -17 -147 -22 -205 -9 -62 14 -150 59
-194 98 -62 55 -116 150 -86 153 43 4 92 32 136 78 17 17 33 31 37 31 4 0 18
-21 31 -46z m147 22 c12 -13 38 -32 57 -42 55 -30 40 -52 -30 -44 -23 2 -63
26 -90 53 -19 20 -19 20 3 38 30 24 33 24 60 -5z m-611 -151 c-58 -120 -178
-219 -316 -260 -50 -15 -67 -16 -88 -6 -14 6 -24 17 -22 24 5 15 147 87 171
87 6 0 35 12 65 27 50 24 162 125 162 145 0 5 12 27 28 50 23 35 27 39 30 21
2 -12 -12 -51 -30 -88z m111 43 c37 -81 49 -141 46 -233 -4 -108 -7 -125 -39
-190 -48 -100 -167 -205 -231 -205 -65 0 -207 119 -219 184 -10 51 12 75 122
138 140 79 163 102 229 233 32 63 61 115 65 115 5 0 17 -19 27 -42z m-951
-123 c18 -71 35 -161 38 -200 4 -38 7 -72 7 -75 1 -6 -13 -126 -19 -165 -19
-119 -129 -162 -212 -83 -73 70 -81 146 -31 287 17 48 51 145 75 217 47 138
77 187 99 162 6 -7 26 -71 43 -143z m1778 121 c53 -14 12 -93 -87 -168 -39
-31 -50 -27 -69 22 -7 19 -24 50 -38 68 -13 18 -22 35 -21 37 2 2 25 14 51 28
46 24 101 29 164 13z m1528 -127 c66 -18 155 -70 192 -112 40 -48 52 -97 34
-146 -33 -92 -157 -251 -265 -341 -79 -66 -384 -268 -477 -316 -18 -9 -35 -20
-38 -23 -3 -3 -21 -14 -40 -25 -200 -107 -289 -140 -405 -152 -33 -3 -62 -7
-65 -7 -3 -1 -28 2 -56 6 -34 5 -72 21 -112 47 -78 50 -151 83 -232 105 -109
30 -108 33 62 118 64 32 124 65 134 73 11 7 42 31 70 51 106 78 196 173 268
283 25 38 46 72 46 76 0 18 101 121 173 177 122 94 158 116 239 147 84 33 110
39 188 47 30 3 56 6 58 8 7 6 190 -6 226 -16z m-2232 -224 c1 -120 -12 -162
-80 -262 -69 -101 -121 -135 -152 -98 -18 22 -4 50 78 154 94 119 100 134 108
260 3 47 8 93 11 101 11 29 35 -74 35 -155z m2972 134 c16 -24 8 -59 -21 -91
-35 -39 -100 -9 -88 41 16 62 79 92 109 50z m-1974 -31 c120 -54 178 -141 128
-188 -12 -11 -27 -20 -33 -20 -6 0 -43 32 -82 70 -92 91 -164 122 -280 123
-33 0 -42 10 -22 22 18 12 102 21 169 19 45 -1 82 -9 120 -26z m-926 -16 c14
-21 26 -42 26 -46 0 -4 6 -14 14 -21 18 -19 46 -107 55 -176 9 -68 -8 -147
-50 -232 -34 -71 -70 -99 -115 -91 -38 7 -110 39 -118 53 -4 6 18 48 47 93 57
87 83 140 93 192 10 48 11 147 2 196 -14 78 4 92 46 32z m683 -36 c91 -11 145
-35 204 -95 102 -103 105 -138 18 -223 -78 -76 -173 -138 -212 -138 -37 0 -63
29 -78 84 -32 129 -49 153 -194 280 l-49 44 69 22 c39 12 93 24 120 27 28 3
52 7 54 9 2 2 7 2 10 0 3 -2 29 -6 58 -10z m-507 -20 c141 -38 207 -74 287
-154 24 -23 43 -45 43 -49 0 -4 6 -14 13 -22 44 -52 67 -205 39 -253 -15 -26
-67 -50 -132 -62 -14 -2 -41 -7 -60 -10 -118 -22 -213 -11 -250 29 -24 26 -29
79 -11 114 7 11 10 21 7 21 -3 0 0 15 6 33 13 43 17 163 6 207 -13 51 -13 52
-30 91 -33 75 -33 81 -1 75 15 -2 53 -11 83 -20z m2571 -17 c27 -51 -25 -135
-89 -144 -25 -3 -36 2 -56 26 -26 30 -25 56 4 94 34 46 121 60 141 24z m-3751
-74 c7 -14 17 -25 22 -25 4 0 8 -6 8 -12 0 -7 10 -25 23 -40 12 -14 42 -53 66
-87 24 -33 92 -110 152 -171 119 -123 157 -185 165 -275 5 -48 3 -57 -19 -79
-19 -19 -32 -23 -62 -20 -128 12 -291 115 -372 236 -55 81 -70 137 -60 223 6
44 16 153 26 263 2 22 37 13 51 -13z m3550 -110 c0 -27 -32 -58 -57 -53 -30 5
-29 52 3 77 31 24 54 14 54 -24z m-3001 -440 c93 -69 143 -150 126 -205 -13
-42 -83 -31 -143 23 -20 19 -40 70 -47 122 -1 11 -7 31 -12 45 -10 27 -7 60 7
60 4 0 35 -20 69 -45z m306 -106 c153 -51 259 -123 316 -214 25 -39 24 -57 -3
-83 -19 -17 -33 -20 -78 -17 -92 6 -163 44 -254 139 -55 57 -148 194 -141 206
8 12 60 2 160 -31z m787 -49 c185 -40 285 -118 249 -196 -17 -39 -61 -61 -201
-102 -39 -11 -202 -3 -257 13 -116 34 -127 42 -233 160 -25 28 -56 60 -70 71
-55 44 -28 61 98 62 46 0 85 2 88 4 13 14 248 5 326 -12z"/>
<path d="M632 1755 c-232 -53 -390 -280 -346 -497 6 -32 10 -58 8 -58 -2 0 13
-31 32 -70 82 -160 234 -244 428 -235 126 5 180 17 267 61 68 34 73 43 75 152
1 54 3 104 3 113 1 9 10 26 21 39 11 13 20 24 20 25 0 1 -56 2 -125 1 -69 -1
-125 -3 -125 -5 0 -2 7 -9 15 -15 25 -18 34 -117 26 -272 -1 -16 -14 -26 -48
-40 -78 -29 -168 -33 -225 -9 -146 60 -238 331 -187 548 21 87 46 142 81 174
140 131 355 43 488 -198 l30 -54 -6 145 c-4 80 -6 152 -6 161 0 13 -4 12 -23
-7 -29 -29 -55 -30 -104 -5 -109 56 -195 69 -299 46z"/>
<path d="M1880 1763 c0 -2 13 -16 29 -31 16 -15 75 -90 130 -167 56 -77 108
-148 116 -157 42 -51 45 -72 43 -256 -3 -161 -5 -182 -22 -201 l-19 -21 133 0
133 0 -24 26 c-23 25 -24 27 -24 232 0 233 -7 208 90 318 80 91 170 179 222
217 24 17 43 33 43 36 0 4 -40 6 -90 6 -49 0 -90 -2 -90 -5 0 -3 7 -13 15 -24
12 -16 12 -23 -2 -50 -13 -25 -73 -106 -93 -126 -3 -3 -25 -30 -50 -60 -67
-83 -65 -81 -81 -62 -38 45 -212 288 -210 292 1 3 7 11 13 18 6 6 7 13 2 13
-19 3 -264 4 -264 2z"/>
<path d="M4910 1755 c0 -6 6 -17 13 -23 9 -10 12 -101 13 -380 0 -344 -1 -369
-18 -394 l-19 -28 111 0 110 0 -17 26 c-15 24 -17 63 -18 388 -1 349 2 388 30
408 14 10 14 10 -102 12 -68 1 -103 -2 -103 -9z"/>
<path d="M6120 1753 c-194 -50 -253 -219 -122 -351 26 -26 96 -83 156 -126
181 -130 223 -179 213 -252 -8 -61 -56 -98 -122 -96 -91 4 -187 87 -253 221
l-37 76 -3 -129 c-3 -129 1 -155 19 -124 11 20 34 14 97 -26 126 -80 318 -68
396 25 54 64 69 129 47 208 -14 48 -105 145 -190 203 -25 17 -48 34 -51 37 -3
4 -32 26 -65 50 -76 56 -93 74 -111 116 -34 83 5 138 101 144 95 5 182 -66
245 -202 l37 -80 -1 142 c-1 136 -1 141 -18 119 -16 -22 -38 -30 -48 -17 -3 3
-25 17 -50 31 -75 43 -154 53 -240 31z"/>
<path d="M3435 1722 c-2 -2 5 -12 16 -23 10 -10 19 -29 20 -41 5 -131 2 -645
-3 -683 -4 -27 -15 -55 -24 -62 -12 -9 13 -11 115 -10 72 0 131 3 131 5 0 3
-8 11 -17 18 -16 11 -18 34 -21 170 l-4 157 42 -6 c52 -7 67 -21 122 -109 23
-38 53 -85 65 -104 12 -19 20 -34 17 -34 -2 0 0 -6 5 -12 6 -7 30 -37 53 -67
93 -117 223 -172 336 -140 46 13 41 29 -8 23 -51 -6 -88 32 -161 161 -87 155
-141 215 -233 260 -49 24 -64 35 -48 36 12 1 25 2 30 4 54 15 72 21 102 39 52
31 69 47 95 91 59 99 31 217 -62 267 -47 25 -90 40 -163 54 -37 7 -398 13
-405 6z m379 -55 c60 -33 99 -102 99 -175 -1 -65 -21 -119 -59 -157 -35 -35
-67 -47 -141 -51 l-61 -3 0 204 0 204 27 3 c48 6 95 -3 135 -25z"/>
</g>
</svg>
