<?xml version="1.0" encoding="UTF-8"?>
<svg width="61px" height="46px" viewBox="0 0 61 46" version="1.1" xmlns="http://www.w3.org/2000/svg" xmlns:xlink="http://www.w3.org/1999/xlink">
    <title>Discord-Logo-White</title>
    <g id="Page-1" stroke="none" stroke-width="1" fill="none" fill-rule="evenodd">
        <g id="Index-video" transform="translate(-860.000000, -2715.000000)" fill="#FFFFFF" fill-rule="nonzero">
            <g id="Discord-Logo-White" transform="translate(860.000000, 2715.000000)">
                <path d="M51.6390761,3.81314901 C47.7511424,2.04820815 43.5819214,0.747877508 39.2227412,0.00312414374 C39.1433553,-0.0112493633 39.0640553,0.0246708043 39.0231595,0.0965128395 C38.486961,1.04002265 37.8930272,2.27090825 37.4771103,3.23837873 C32.7885301,2.54392839 28.1240063,2.54392839 23.5315655,3.23837873 C23.1155627,2.24940324 22.5000642,1.04002265 21.9614599,0.0965128395 C21.9205642,0.0270678055 21.8412642,-0.00885236213 21.7618783,0.00312414374 C17.4051037,0.745497507 13.2358827,2.04582814 9.34554334,3.81314901 C9.31186447,3.82751402 9.28299687,3.85148403 9.26383771,3.88259404 C1.35570339,15.5712898 -0.81066516,26.9726853 0.252082829,38.2327259 C0.256891519,38.2878059 0.288148434,38.3405059 0.331428362,38.3739959 C5.54898935,42.1648278 10.6030884,44.4662039 15.5633333,45.9916147 C15.6427192,46.0155847 15.7268305,45.9868547 15.7773488,45.9221696 C16.9506967,44.3369189 17.9966319,42.665393 18.8934178,40.9075922 C18.9463417,40.8046571 18.8958234,40.6825121 18.7876558,40.641797 C17.1286277,40.0191717 15.5488995,39.2600364 14.0293122,38.3979659 C13.9091165,38.3285209 13.8994939,38.1584358 14.0100672,38.0770058 C14.3298446,37.8399407 14.649708,37.5932705 14.9550517,37.3442204 C15.0102953,37.2987454 15.0872756,37.2891404 15.1522277,37.3178704 C25.1352641,41.8272076 35.9430892,41.8272076 45.8083354,37.3178704 C45.8732875,37.2867604 45.9502678,37.2963654 46.0079171,37.3418404 C46.3133467,37.5908905 46.6331241,37.8399407 46.9553072,38.0770058 C47.0658805,38.1584358 47.0586636,38.3285209 46.9384678,38.3979659 C45.4188805,39.2767814 43.8391524,40.0191717 42.1777186,40.639417 C42.069551,40.6801321 42.0214383,40.8046571 42.0743623,40.9075922 C42.9903932,42.662928 44.0363284,44.3344538 45.1880256,45.9197896 C45.2361383,45.9868547 45.3226552,46.0155847 45.4020411,45.9916147 C50.3863424,44.4662039 55.440407,42.1648278 60.6579689,38.3739959 C60.7036759,38.3405059 60.7325435,38.2901859 60.7373548,38.2351059 C62.0092477,25.2172645 58.6069943,13.909369 51.7183761,3.88497404 C51.7015367,3.85148403 51.672755,3.82751402 51.6390761,3.81314901 Z M20.3842234,31.3765375 C17.3786417,31.3765375 14.9021277,28.6465912 14.9021277,25.2939345 C14.9021277,21.9412779 17.330615,19.2113315 20.3842234,19.2113315 C23.4618022,19.2113315 25.9143458,21.9652479 25.8662331,25.2939345 C25.8662331,28.6465912 23.4377458,31.3765375 20.3842234,31.3765375 Z M40.6533201,31.3765375 C37.6478244,31.3765375 35.1713103,28.6465912 35.1713103,25.2939345 C35.1713103,21.9412779 37.5997117,19.2113315 40.6533201,19.2113315 C43.7309848,19.2113315 46.1834425,21.9652479 46.1354157,25.2939345 C46.1354157,28.6465912 43.7309848,31.3765375 40.6533201,31.3765375 Z" id="Shape"></path>
            </g>
        </g>
    </g>
</svg>