<?xml version="1.0" encoding="UTF-8"?>
<svg width="18px" height="17px" viewBox="0 0 18 17" version="1.1" xmlns="http://www.w3.org/2000/svg" xmlns:xlink="http://www.w3.org/1999/xlink">
    <title>Fill 23</title>
    <g id="Page-1" stroke="none" stroke-width="1" fill="none" fill-rule="evenodd">
        <g id="Index-video" transform="translate(-1027.000000, -6252.000000)" fill="#FFFFFF">
            <path d="M1029.64706,6266.29412 C1029.35482,6266.29412 1029.11765,6266.05694 1029.11765,6265.76471 L1029.11765,6257.82353 L1031.23529,6257.82353 C1030.95947,6258.22059 1030.86629,6258.96124 1030.86629,6259.43135 C1030.86629,6262.26635 1033.17824,6264.573 1036.01959,6264.573 C1038.86147,6264.573 1041.17341,6262.26635 1041.17341,6259.43135 C1041.17341,6258.96124 1041.10671,6258.23171 1040.76471,6257.82353 L1042.88235,6257.82353 L1042.88235,6265.76471 C1042.88235,6266.05694 1042.64518,6266.29412 1042.35294,6266.29412 L1029.64706,6266.29412 Z M1035.99974,6256.23529 C1037.75432,6256.23529 1039.17647,6257.65758 1039.17647,6259.41151 C1039.17647,6261.16595 1037.75432,6262.58824 1035.99974,6262.58824 C1034.24568,6262.58824 1032.82353,6261.16595 1032.82353,6259.41151 C1032.82353,6257.65758 1034.24568,6256.23529 1035.99974,6256.23529 M1029.13975,6252 C1027.95794,6252 1027,6252.87136 1027,6253.94633 L1027,6266.46543 C1027,6267.5404 1027.95794,6268.41176 1029.13975,6268.41176 L1042.86025,6268.41176 C1044.04206,6268.41176 1045,6267.5404 1045,6266.46543 L1045,6253.94633 C1045,6252.87136 1044.04206,6252 1042.86025,6252 L1029.13975,6252 Z" id="Fill-23"></path>
        </g>
    </g>
</svg>