<?xml version="1.0" encoding="UTF-8"?>
<svg width="170px" height="133px" viewBox="0 0 170 133" version="1.1" xmlns="http://www.w3.org/2000/svg" xmlns:xlink="http://www.w3.org/1999/xlink">
    <title>9DA5B645-294F-42C0-AF06-B0C6C2C0B7A2</title>
    <defs>
        <polygon id="path-1" points="0 0 170 0 170 89.4736842 0 89.4736842"></polygon>
    </defs>
    <g id="Page-1" stroke="none" stroke-width="1" fill="none" fill-rule="evenodd">
        <g id="Index-video" transform="translate(-316.000000, -27.000000)">
            <g id="Group-14" transform="translate(316.000000, 27.000000)">
                <g id="Group-3">
                    <mask id="mask-2" fill="white">
                        <use xlink:href="#path-1"></use>
                    </mask>
                    <g id="Clip-2"></g>
                    <path d="M90.5862425,42.2306434 C90.21593,41.6510618 89.9947185,41.6130318 89.6479368,42.0893737 C89.4187009,42.4040344 89.2627685,42.7712281 89.0739796,43.1147872 C89.1104144,43.1369177 89.1468493,43.1588333 89.1832841,43.1808563 C89.6396956,42.8716745 90.0962155,42.5624928 90.5862425,42.2306434 M44.5539602,45.4441787 C43.4639511,46.1626664 43.7718038,47.3218296 43.3963948,48.3121137 C44.5334656,47.5817013 44.9041034,46.6796167 44.5539602,45.4441787 M153.135872,46.9670977 C153.893521,46.9757995 154.548589,46.5747656 154.557047,46.0967048 C154.569735,45.3733827 154.162662,44.8764144 153.555631,44.8742574 C152.878117,44.8717949 152.30481,45.4159248 152.282038,46.0831687 C152.263604,46.6214974 152.591409,46.9607594 153.135872,46.9670977 M138.868702,62.4052381 C138.69195,62.0653315 138.598802,61.5650329 138.319251,61.4218295 C137.863599,61.188278 137.42855,61.5332338 137.129263,61.9161121 C136.957174,62.1364498 136.794518,62.3880494 136.716335,62.6513588 C136.562138,63.1714245 137.043707,63.8462959 137.511829,63.8283552 C138.136535,63.8042911 138.779024,63.0991245 138.868702,62.4052381 M16.3004727,40.7760494 C16.3004727,40.0695938 15.7151295,39.4587503 15.0276387,39.4477925 C14.4650673,39.4388758 14.1257678,39.80145 14.1288908,40.4082112 C14.1330331,41.1777279 14.7468952,41.8258494 15.4567241,41.8100573 C15.9686553,41.7986698 16.3004727,41.3919421 16.3004727,40.7760494 M80.9760099,44.6203027 C81.7550216,44.5541262 82.373438,44.186288 82.825512,43.5714696 C82.9023939,43.4670482 82.8524044,43.1399257 82.7478711,43.0591388 C82.3696427,42.766716 81.9576904,42.5059849 81.5269785,42.2970347 C81.3780944,42.2247347 80.9985648,42.2831763 80.9613709,42.3754582 C80.7382075,42.9305458 80.5446474,43.5046485 80.4208123,44.0889569 C80.345557,44.4442259 80.5839016,44.6511349 80.9760099,44.6203027 M86.9688913,36.4427776 C87.0205074,36.4173168 87.0721234,36.3917486 87.123631,36.3663953 C87.0635569,36.1315546 87.0138927,35.8934911 86.9413483,35.6625179 C86.6042176,34.5902652 86.4756112,33.499642 86.6433633,32.3842027 C86.733583,31.7846393 86.8701052,31.1902324 86.9251912,30.5880907 C86.9430833,30.3920321 86.8064526,30.0402008 86.6741595,30.0052863 C86.4686713,29.9508196 86.1483482,30.0434237 85.9846083,30.1911391 C85.8182659,30.3413254 85.7449625,30.6260133 85.6956236,30.8649363 C85.3951446,32.3235051 85.5407755,33.7485559 86.1439023,35.1079674 C86.3538364,35.5811939 86.6902081,35.9994165 86.9688913,36.4427776 M83.945016,48.8714985 C84.1925778,48.8451783 84.4838397,48.8361542 84.7636073,48.7751343 C84.9057682,48.7440872 85.1074611,48.6400956 85.1355463,48.5316993 C85.1639568,48.4221214 85.0457604,48.2137083 84.9316847,48.1402266 C84.4509833,47.8304003 83.9254974,47.585891 83.4600856,47.2568348 C83.1075568,47.0074912 82.7632692,46.7050774 82.5241655,46.3535685 C82.3419913,46.085747 82.1761911,46.0030264 81.9158337,46.1099186 C81.5069176,46.2777233 80.95172,46.2317435 80.8024022,46.8036976 C80.7865704,46.8645026 80.8222462,46.9447524 80.8495723,47.0095323 C81.2142461,47.8747686 82.9292863,48.9190897 83.945016,48.8714985 M93.3364227,39.4114813 C93.3892316,39.4191088 93.4420404,39.4266289 93.4947408,39.4342564 C93.5622971,39.3179103 93.6538179,39.2090844 93.6937228,39.0839291 C94.0502638,37.9675229 94.7072838,37.0312758 95.5131879,36.2023506 C96.0748917,35.6243805 96.7096822,35.1165618 97.3007725,34.5658787 C97.5631901,34.3214769 97.8810191,34.0449536 97.5849859,33.6542329 C97.2830972,33.2559922 96.9127847,33.452588 96.5706659,33.6380111 C96.5076639,33.6721736 96.4469392,33.7118151 96.3901182,33.755324 C94.7843825,34.9876465 93.8120276,36.6189618 93.345423,38.5563434 C93.2803608,38.8267432 93.3364227,39.1258266 93.3364227,39.4114813 M14.2398577,42.7064481 C14.2435305,41.7445254 13.5252435,41.1255172 12.6779165,41.3924793 C11.9558342,41.6199073 11.3909857,42.0846468 11.1735694,42.8065723 C11.0809642,43.114465 11.1520989,43.5682467 11.3306947,43.837035 C11.6375715,44.2989814 12.4976941,44.3652653 13.1770522,44.0977662 C13.8829773,43.8197389 14.2373495,43.3559662 14.2398577,42.7064481 M146.645264,54.2257793 C145.630619,54.2454388 144.56902,55.5979749 144.792617,56.586003 C144.96102,57.3304886 145.818974,57.8184329 146.445089,57.489699 C147.236354,57.0741621 147.755443,56.4373207 147.852494,55.5250303 C147.934038,54.7583068 147.417987,54.2108466 146.645264,54.2257793 M72.5326683,45.7952579 C72.5608619,46.0033487 72.5734406,46.1076626 72.5893808,46.2115468 C72.7620126,47.3325725 72.9755251,47.5085418 74.1058728,47.4118554 C75.8960599,47.2586611 77.1084944,46.2442054 78.0103653,44.7918674 C78.0808494,44.6785294 78.0404024,44.4975109 78.0514629,44.3478618 C77.904097,44.3602162 77.7450199,44.3412012 77.6112086,44.3898667 C76.5541643,44.7751085 75.5165303,45.2205107 74.4422445,45.5484926 C73.8553833,45.7276848 73.2087732,45.7147933 72.5326683,45.7952579 M78.6810484,42.2282799 C78.412992,42.157484 78.3612676,42.1296597 78.3120371,42.1337421 C78.1867924,42.1439478 78.0602463,42.1584508 77.9387969,42.1888533 C76.4552697,42.561311 74.9690317,42.7980854 73.450154,42.3663267 C73.2500877,42.3094965 73.0059959,42.3102485 72.8084236,42.3694421 C72.6421897,42.4192894 72.4448343,42.5645339 72.3806395,42.7169762 C72.0580393,43.4821958 72.4498224,44.2422587 73.2627748,44.4061959 C74.8990898,44.7361116 76.3868459,44.3324994 77.7086935,43.368428 C78.0731504,43.1025403 78.3133384,42.6692776 78.6810484,42.2282799 M144.038871,58.490726 C144.045378,57.768908 143.755742,57.4026812 143.047215,57.2371325 C141.874685,56.9629727 140.429762,57.7103589 139.831297,58.9005691 C139.475949,59.6070248 139.548927,60.2233472 140.054027,60.7803686 C140.620394,61.4051779 141.375007,61.6004846 142.101644,61.3103178 C143.143941,60.8942438 144.028787,59.6061654 144.038871,58.490726 M92.4932163,46.6980945 C92.3151627,45.9048359 92.1526156,44.9747123 91.8888967,44.073702 C91.7020597,43.4357863 91.1135719,43.2137297 90.557832,43.5687838 C89.5662837,44.2020801 88.7376079,44.9782574 88.7074624,46.2807313 C88.6997634,46.616663 88.647822,46.9575365 88.5677955,47.284659 C88.4432013,47.7939817 88.5224688,47.8786361 89.0538103,47.9596378 C89.8485453,48.0808182 90.6427382,48.227889 91.4204487,48.4274928 C91.8429194,48.5359965 92.1066383,48.447045 92.2208225,48.0556797 C92.3344645,47.6660333 92.3842371,47.2582314 92.4932163,46.6980945 M89.2431414,40.8779999 C89.0455691,40.7415646 88.8129716,40.476966 88.5301678,40.4040215 C87.5086909,40.1403897 86.4791897,39.8330343 85.4358085,39.7490245 C84.4348261,39.6684524 83.4923998,40.082915 82.6667602,40.6700166 C82.3465456,40.8976595 82.1265269,41.2038333 82.5062734,41.5557719 C83.1504979,42.1526496 83.8603267,42.6546672 84.8041627,42.551535 C85.8412546,42.4383044 86.774789,42.638875 87.6539965,43.3894842 C88.177639,42.5618482 88.6816544,41.7654741 89.2431414,40.8779999 M89.0324482,49.0341466 C88.5054442,49.1365268 87.9403788,49.1820769 87.4242185,49.36374 C86.8516709,49.5651701 86.322715,49.8889622 85.7766261,50.163122 C85.4217116,50.3414548 85.4902439,50.6191598 85.6996358,50.8216642 C86.5061905,51.6018164 86.8770452,52.5981166 87.2168868,53.6239598 C87.3962417,54.1651891 87.6616956,54.2575784 88.1704822,53.9373314 C89.5285476,53.0821934 90.6980411,52.0334677 91.4451723,50.5878979 C91.7729775,49.9535273 91.6347203,49.5597986 90.9319398,49.3666406 C90.3296805,49.2011993 89.6965166,49.1457657 89.0324482,49.0341466 M151.214584,44.9460286 C151.208945,43.5112017 150.59671,42.4854659 149.521231,42.1083887 C148.443259,41.7304521 147.391528,42.2640539 147.199377,43.3395295 C146.972961,44.6065517 147.100917,45.8690619 147.469928,47.0948313 C147.696778,47.8484484 148.214457,48.0777027 148.990324,47.8714383 C150.510069,47.4673964 151.22109,46.532331 151.214584,44.9460286 M94.4801082,43.7499098 C94.663909,43.4928313 94.8054193,43.3337283 94.9024705,43.1513132 C95.1716112,42.6456431 95.4242695,42.1312712 95.6796387,41.6185107 C96.5003987,39.9701142 97.7051342,38.7216772 99.4488018,38.0166181 C99.7626186,37.889744 100.065592,37.7122707 100.335275,37.5083697 C100.695286,37.2361436 100.839073,36.8691648 100.654405,36.4179614 C100.260995,35.4568981 99.2388677,35.0413612 98.2921039,35.4758057 C98.0644945,35.580227 97.8500061,35.7179515 97.6424576,35.8590063 C95.4160283,37.3730087 94.3446703,39.5380332 94.0788911,42.1393284 C94.0255401,42.6618649 94.0426732,43.2028793 94.4801082,43.7499098 M68.2977681,47.7734627 C68.2191513,47.7543403 68.1406428,47.7352178 68.062026,47.7160954 C67.6319647,48.4118081 67.1995178,49.1060169 66.7723843,49.803341 C65.6948454,51.5622824 64.2798505,52.9569307 62.3365503,53.7508339 C61.0553667,54.2741225 59.7468569,54.7312345 58.4619864,55.2461436 C57.9838875,55.4376902 57.4927762,55.6511524 57.0904748,55.9602268 C56.6376417,56.3079757 56.7510668,56.929025 57.2928183,57.1134813 C57.667902,57.2411074 58.130386,57.3102919 58.5026503,57.2130683 C59.4031115,56.9777979 60.2996689,56.6888129 61.1515503,56.3171072 C64.5662327,54.8269541 66.9187743,52.3388895 68.1331607,48.8290639 C68.2478871,48.4975368 68.2457183,48.1262608 68.2977681,47.7734627 M68.1350041,45.5120741 C68.0879424,45.4931665 68.0409892,45.4741515 67.9938191,45.4552439 C67.7893068,45.7414358 67.5842524,46.0274128 67.3798486,46.3138196 C65.973637,48.2846117 64.3641061,50.0526846 61.996058,50.8707594 C60.5045065,51.3859908 58.9421457,51.6973212 57.4195812,52.1277907 C56.7470547,52.3179407 56.0742028,52.5330144 55.4388702,52.8184543 C54.9351802,53.0445931 54.9349633,53.3326113 55.3234932,53.737083 C55.8254483,54.259727 56.469998,54.3377207 57.1263674,54.229969 C59.7309167,53.8025075 62.1211943,52.8471379 64.2113183,51.2327965 C65.9521665,49.8882102 66.9558597,47.9913295 67.9782042,46.1187278 C68.0754722,45.9406099 68.0847978,45.7154379 68.1350041,45.5120741 M67.0506337,77.5682519 C66.9406786,77.3019344 66.7794327,76.7904631 66.5289431,76.3262607 C65.5746972,74.5576506 63.9934683,73.4274935 62.3345984,72.3906924 C62.173461,72.2900311 61.9309958,72.3168884 61.7263751,72.2844448 C61.6927596,72.4982292 61.5928891,72.7264093 61.6364808,72.9233273 C61.8606201,73.9348825 62.2076187,74.9265632 62.3505387,75.9473572 C62.5947389,77.6913659 63.6771574,78.6052677 65.2413617,79.1255483 C66.2794295,79.4707189 67.0417419,78.9207879 67.0506337,77.5682519 M101.153215,39.0626581 C100.74007,39.1771778 100.317491,39.2660219 99.9151895,39.4102996 C97.3105318,40.3448279 95.873741,42.3493528 94.9442187,44.7999246 C94.8394685,45.0761256 94.827432,45.3956206 94.8215305,45.6961006 C94.8188655,45.8312468 94.9369534,45.968649 95.0001722,46.1050843 C95.1223808,46.0433124 95.2711564,46.0072161 95.3619182,45.9150417 C95.6639153,45.6081159 95.9535507,45.2881912 96.2329929,44.9607464 C97.4806695,43.4983102 99.0391266,42.5762437 100.956077,42.2644836 C101.649315,42.1517902 102.344179,42.0422122 103.030477,41.895034 C103.33833,41.8290723 103.598579,41.661375 103.553469,41.2631343 C103.413477,40.0297375 102.417808,39.1321649 101.153215,39.0626581 M90.5909053,55.6223613 C90.6074962,55.6851001 90.6240871,55.7478389 90.6406779,55.8105776 C91.2279729,55.8706306 91.8146173,55.9365923 92.4024545,55.9897698 C94.3430438,56.1656318 96.182136,56.5815983 97.6000587,58.0546701 C98.1726063,58.6495067 98.7666244,59.224039 99.3520759,59.806736 C99.5555038,60.0092404 99.7467868,60.227537 99.9699502,60.4060846 C100.535666,60.8582549 100.979824,60.8212992 101.492732,60.306605 C102.2442,59.5526655 102.131317,58.3579433 101.173384,57.455429 C100.143558,56.4851268 98.9562807,55.7396742 97.6164327,55.2588203 C95.5624183,54.5217472 93.4884515,54.8180375 91.4234849,55.2084359 C91.1300543,55.2638695 90.8676366,55.4803397 90.5909053,55.6223613 M72.5308248,54.0341252 C72.4587142,54.055826 72.3866036,54.0775267 72.3143845,54.0993349 C72.2943236,54.2496286 72.2629853,54.3994926 72.2563707,54.5504309 C72.2163574,55.4602504 72.1995497,56.3715739 72.1419696,57.2803191 C72.0304963,59.0410868 71.6140981,60.6987223 70.4468818,62.1026095 C69.644773,63.0674329 68.8564357,64.0445032 68.0889184,65.0365061 C67.7974396,65.413261 67.5081296,65.8209556 67.3474259,66.2610938 C67.0789358,66.9968776 67.5506369,67.5470235 68.3415767,67.4858962 C69.0810088,67.4289587 69.625905,66.9901096 70.0406766,66.4428643 C70.775446,65.4735289 71.4908052,64.4839968 72.1298247,63.4514929 C72.5102218,62.8368894 72.8190505,62.1476224 73.0042609,61.4512651 C73.5902547,59.2492849 73.5095775,57.0281823 72.9845254,54.823409 C72.9172944,54.5406548 72.6861067,54.2962529 72.5308248,54.0341252 M87.6574665,33.1480256 C87.7244806,33.830632 87.7231794,34.32051 87.8269536,34.7875056 C88.307655,36.9526375 89.3449637,38.7394031 91.3738207,39.8570984 C91.9510311,40.1750894 92.1587965,40.1320102 92.1881829,39.4732532 C92.2888125,37.2126166 93.1783215,35.2948946 94.671608,33.6142692 C95.321688,32.8825676 95.2946872,32.6639488 94.6066542,31.9583526 C93.2761317,30.5937845 91.575839,30.0744708 89.7367468,29.912145 C88.8378037,29.8328621 88.3688135,30.1200209 88.104444,30.9826789 C87.8713044,31.744031 87.7767473,32.5469582 87.6574665,33.1480256 M77.7893706,83.9752332 C78.4883558,83.9878024 79.1586051,83.8314927 79.5544003,83.1337388 C79.9483521,82.4387781 79.647114,81.8233151 79.2838499,81.2251483 C79.2374388,81.148766 79.1854975,81.0744248 79.1275921,81.0062072 C77.5728219,79.1744287 75.7655017,77.6602114 73.4910348,76.7853065 C72.1314512,76.2624476 70.7399871,75.819946 69.355463,75.3629413 C68.9127146,75.2167299 68.4506643,75.1134903 67.9892647,75.0447355 C67.7998252,75.016589 67.5018402,75.0715928 67.4121628,75.1986818 C67.3258469,75.3211513 67.3900417,75.6157227 67.4836228,75.7818085 C67.7643663,76.2801735 68.0960752,76.750177 68.4001327,77.2359727 C69.3645717,78.7762953 70.4656414,80.1923221 71.8332493,81.4220663 C73.5289878,82.9472414 75.4419256,83.8821994 77.7893706,83.9752332 M77.5762918,63.2064465 C77.4706742,61.4331096 77.2044612,59.6644995 76.3588692,58.0469352 C75.8471548,57.0681461 75.246522,56.1328658 74.6431784,55.2053204 C74.5371269,55.0423501 74.2196233,55.0144184 73.9998214,54.9240703 C73.9336748,55.1516057 73.8605882,55.3775298 73.8057191,55.6078584 C73.7907548,55.6709194 73.8333705,55.7465497 73.8449733,55.8171308 C74.1285362,57.5363233 74.2943364,59.2742086 74.0359309,60.9974834 C73.7251504,63.0706558 72.7252524,64.8760066 71.5045767,66.5653338 C71.1377342,67.0729377 70.7643854,67.5793598 70.4437371,68.1155399 C70.1965007,68.5290356 70.2825997,68.9401679 70.7493127,69.1507295 C71.4839736,69.4821491 72.2235143,69.8175437 72.9902726,70.0604415 C74.1009932,70.4123802 74.9902853,69.9839518 75.6104367,69.0641414 C75.9778214,68.5190447 76.2620349,67.911424 76.527055,67.3075634 C77.097217,66.0080975 77.5669663,64.6768326 77.5762918,63.2064465 M78.3556288,45.881094 C78.177033,45.9665004 78.1372366,45.974665 78.1141396,45.9985143 C77.9769667,46.1402137 77.8529147,46.2954492 77.7075007,46.428017 C76.7334107,47.3160284 75.8849993,48.369481 74.4547148,48.6175354 C73.5244334,48.7790018 73.4397441,49.0362952 73.9062402,49.8561963 C75.7740682,53.1394533 78.7617256,54.7653971 82.3924145,55.2900822 C83.4277714,55.4398388 84.535022,55.1545063 85.6017171,55.0124847 C86.0277663,54.9558694 86.3317153,54.6631243 86.2070127,54.1671228 C85.7434443,52.3223453 84.6704598,50.9410183 82.8232349,50.3694939 C80.9652746,49.7946392 79.6616445,48.7305511 78.9530085,46.9329352 C78.8078113,46.5645598 78.5604664,46.2358259 78.3556288,45.881094 M81.5300147,11.4837075 C81.6388855,13.7958029 82.1708776,16.0039065 83.1544016,18.1090929 C84.2263017,20.4036772 86.0016329,22.0949381 87.9536081,23.6268811 C88.9553495,24.4131568 89.9964535,25.1568905 91.0706308,25.8412157 C91.3368437,26.0108467 91.8012796,25.8747337 92.1746283,25.8791383 C92.0553475,25.5483632 92.012298,25.1568905 91.8025808,24.8980931 C91.1361268,24.0758286 90.3942005,23.3144765 89.7057338,22.5091858 C87.8303152,20.3153702 86.5855664,17.8505103 86.3102447,14.9383144 C86.1758913,13.5169162 85.9694271,12.0955179 85.6839124,10.6965724 C85.4197598,9.40269285 84.571999,8.92151661 83.1279429,9.06643886 C82.0724168,9.17236424 81.6117763,9.74431831 81.5312075,11.0540974 C81.5224241,11.1968711 81.5300147,11.3405042 81.5300147,11.4837075 M69.0538996,41.0307645 C68.9809215,40.9946682 68.9080518,40.9584645 68.8351821,40.9222608 C68.5917409,41.092429 68.345372,41.2588371 68.1052924,41.4334099 C66.8835322,42.3215286 65.6927851,43.25509 64.434048,44.0882049 C63.3220261,44.8242037 62.1209775,45.4088344 60.7606348,45.5868449 C58.6050149,45.8689545 56.4464672,45.9627404 54.2779433,45.7551868 C53.3998201,45.6710696 52.9572886,46.0028115 52.8008139,46.8724524 C52.6021573,47.9767191 52.8215254,49.0093304 53.4391828,49.9481558 C53.7986516,50.494864 54.2934498,50.8875184 54.9667353,50.9555212 C55.6106345,51.0206234 56.2690642,51.1083932 56.9068909,51.0451173 C62.5264236,50.4875588 66.3261659,47.414756 68.7516856,42.5078112 C68.9674753,42.0713256 68.958475,41.5256917 69.0538996,41.0307645 M47.5779439,59.4344932 C47.436542,57.8973935 47.430578,56.5948122 47.1757509,55.3418632 C46.756208,53.2794338 46.1980826,51.2432171 45.650584,49.2085045 C45.451602,48.4689606 44.9860818,48.380761 44.4885726,48.9733416 C44.1736715,49.3482701 43.9153745,49.8038782 43.7543455,50.26518 C43.2658366,51.6645552 42.8635352,53.0934735 42.378171,54.4940305 C41.7524893,56.2992739 40.972827,58.0587525 40.4537388,59.8919276 C39.8591786,61.9918498 40.1702844,63.9815495 41.8703603,65.5688188 C42.4326064,66.0937188 43.0684812,66.5177426 43.8795902,66.493571 C45.5433397,66.4438312 46.6482047,65.6454159 46.9748171,64.0250584 C47.2948148,62.4385412 47.4050953,60.8105563 47.5779439,59.4344932 M84.3815836,31.8368499 C84.3815836,31.7473613 84.3803908,31.6578726 84.3818004,31.5683839 C84.396331,30.6633987 84.1289253,30.3447632 83.2051501,30.4264095 C82.4604045,30.4921563 81.6990681,30.6421277 81.0001914,30.9009251 C77.5221818,32.1885738 75.269836,34.7779443 73.58364,37.9299226 C73.2903178,38.4783497 73.0542504,39.0680296 72.8765221,39.6635107 C72.5723562,40.6818339 72.7165775,40.9285992 73.6966314,41.3672334 C75.87524,42.3422625 78.6883137,41.792976 80.4960676,40.0227546 C81.6211018,38.9208513 82.9275513,38.1868937 84.5113827,37.9698864 C84.9038163,37.9160642 85.2980934,37.8508546 85.6791412,37.7463258 C86.2897501,37.5789508 86.3524268,37.3975026 85.9921989,36.8771146 C84.9401428,35.3570962 84.4245246,33.6720662 84.3815836,31.8368499 M107.255618,36.0182166 C107.204653,37.4381109 107.868829,38.6078021 108.611732,39.7366701 C108.873282,40.133944 109.128326,40.0757172 109.306271,39.6424545 C109.373936,39.4777653 109.407117,39.2994325 109.463613,39.1299089 C109.966436,37.6207408 110.45592,36.1070607 110.97837,34.6046607 C111.78178,32.2938546 113.064916,30.3011468 114.956274,28.6977632 C116.121973,27.7096277 117.266959,26.6923788 118.359029,25.6258198 C119.034917,24.9657736 119.650188,24.2267669 120.18847,23.452201 C120.650086,22.7880725 120.52636,22.1227623 119.962812,21.6054898 C119.255261,20.9559717 118.424199,20.5357079 117.435904,20.5256095 C115.921472,20.5102471 114.755232,21.2623603 113.708923,22.2461986 C111.203052,24.6021251 109.512518,27.4500783 108.47792,30.705511 C107.924783,32.446082 107.334885,34.1726872 107.255618,36.0182166 M89.9952607,56.6604515 C89.508053,56.7429573 88.5628074,56.8656417 87.6362129,57.0711541 C86.812742,57.2536766 86.0055367,57.5136557 85.2013676,57.7708417 C84.9611795,57.8476537 84.7554745,58.0300688 84.534046,58.1641407 C84.6927979,58.3686862 84.8199945,58.6113692 85.0160487,58.7712242 C85.7539627,59.373151 86.5214801,59.9396262 87.2651413,60.5349999 C88.8353097,61.7917089 89.8789077,63.3736066 90.2714498,65.3551417 C90.3406326,65.704717 90.4415875,66.0487059 90.5416749,66.3912982 C91.1223553,68.3803533 92.0412507,68.7999725 93.8559446,67.7969043 C95.7126036,66.7707388 97.2924228,65.3900563 98.7324667,63.8401725 C99.473417,63.0428315 99.4960803,62.2304505 98.9999809,61.3392163 C98.3083694,60.0969028 97.3289661,59.1072633 96.2058837,58.2455722 C94.5077596,56.942776 92.4952766,56.7817393 89.9952607,56.6604515 M123.349301,16.115848 C123.239671,16.1240126 123.000568,16.1169223 122.773067,16.1642986 C122.306462,16.2614148 121.856774,16.3974204 121.686528,16.9247913 C121.51498,17.456137 121.782169,17.8581378 122.148253,18.1495937 C122.664847,18.5608334 123.237069,18.9076155 123.804411,19.2511747 C124.834346,19.8748023 125.920452,20.4157093 126.909506,21.096167 C132.352937,24.8406184 137.721546,28.6845494 142.765278,32.9561568 C143.471963,33.5546459 144.285674,34.0364667 145.082036,34.5203287 C145.507326,34.7788038 146.014703,34.8809691 146.442053,34.4879924 C146.85509,34.1081221 146.807052,33.6194258 146.661747,33.1382496 C146.296097,31.9279501 145.639402,30.8635397 144.713675,30.0272019 C142.980743,28.4616334 141.201616,26.942367 139.387248,25.4699398 C135.355992,22.1982851 131.080537,19.2824366 126.415142,16.9548715 C125.489523,16.4930325 124.527578,16.1457133 123.349301,16.115848 M71.4744312,54.7787183 C71.4665153,54.6242349 71.4358276,54.373817 71.4435266,54.1246882 C71.5033839,52.1873066 70.7715423,50.4543631 70.009989,48.7343112 C69.915215,48.5202044 69.6424958,48.3833394 69.4522973,48.2108078 C69.3035217,48.3948343 69.1115881,48.5587715 69.0133441,48.7663251 C68.5086782,49.8324544 68.060291,50.925441 67.5312267,51.979001 C66.870086,53.2954408 66.1540763,54.6001707 64.84394,55.4084694 C63.6079746,56.1711106 62.328526,56.8641376 61.0729335,57.5958392 C60.6554509,57.8391668 60.209124,58.0585376 59.8519324,58.3734131 C58.8616854,59.2463844 58.7720079,60.2434365 59.4820537,61.3397534 C60.2511976,62.5273853 61.3605085,63.3595334 62.4692772,64.1874917 C63.9435872,65.2885355 65.0180898,65.3425725 66.5311119,64.2972845 C69.8286822,62.0192443 71.5211675,58.8871405 71.4744312,54.7787183 M105.275449,48.8823489 C105.097938,47.5755778 104.987657,46.2554854 104.725348,44.9656882 C104.422592,43.4763946 103.722956,43.0493627 102.200609,43.2333893 C99.3725705,43.575337 97.0234989,44.7583495 95.4217754,47.1544546 C94.9822801,47.811815 94.6929701,48.5720928 94.3689602,49.3000343 C93.8332812,50.5029212 93.3256875,51.7181625 92.8056234,52.9279248 C92.6555466,53.2769629 92.5034094,53.6250341 92.3522482,53.9736425 C92.7626823,54.0191926 93.1728997,54.0995497 93.5837676,54.1040618 C94.8600716,54.1178127 96.151123,53.9821294 97.4093179,54.1305968 C98.874953,54.3035581 100.075459,55.1712653 101.216109,56.0612104 C101.618952,56.3755488 102.027326,56.4826559 102.524402,56.348584 C103.19335,56.1681026 103.653448,55.7884472 103.965096,55.1620264 C104.951439,53.179417 105.101082,51.0482328 105.275449,48.8823489 M81.5053995,77.0656972 C80.5419364,77.0656972 79.7834193,77.0579623 79.025336,77.0697795 C78.7567374,77.0739692 78.4661262,77.0718206 78.2266972,77.170226 C77.9463875,77.2854977 77.6039433,77.460715 77.4964822,77.701142 C77.433914,77.8411225 77.7309231,78.2203482 77.9479056,78.3879381 C79.0076608,79.2064426 79.9561595,80.1185181 80.7603286,81.1937789 C81.6076557,82.3266218 82.623277,83.304659 83.9888246,83.8073211 C86.9968681,84.9143809 90.0691063,85.3619318 93.2145395,84.4421213 C94.210859,84.1507728 95.2263719,83.8263361 96.1252065,83.3265746 C97.872561,82.3548757 97.9609372,80.6400878 96.3985763,79.4011047 C95.9511651,79.046158 95.4600537,78.7231178 94.9440018,78.4789308 C92.1335306,77.1497069 89.1340537,76.6904463 86.053249,76.750177 C84.4681163,76.7809019 82.8860199,76.9653581 81.5053995,77.0656972 M47.8581452,67.3823343 C47.9985712,67.8941279 48.1385634,68.6654709 48.4198491,69.3824547 C49.5207019,72.1895846 51.5760176,74.1506007 54.1541082,75.6517115 C55.6305869,76.5112541 57.1497898,77.2261967 58.87524,77.3972243 C60.2449082,77.5329076 61.1056815,76.7242866 60.9918226,75.3622968 C60.8433723,73.5861667 60.3405497,71.9200443 59.145682,70.5349572 C58.4429015,69.7203201 57.7509648,68.8835526 56.9573141,68.1611974 C54.3411621,65.7799175 52.2618818,62.9812745 50.3513296,60.0421138 C50.166336,59.757426 49.9867643,59.448459 49.7322626,59.235534 C49.5203766,59.0580606 49.1867158,58.9011063 48.9374191,58.9379546 C48.7978606,58.958581 48.6486512,59.3860426 48.6276144,59.6403279 C48.534467,60.7616759 48.5236233,61.8902216 48.4123669,63.009421 C48.2764953,64.37646 48.0703565,65.7365161 47.8581452,67.3823343 M81.3364546,71.4464955 C83.6114637,71.2839549 85.5905481,70.9919618 87.5076065,70.3885309 C89.0401472,69.9061729 89.4666301,69.2288306 89.4447258,67.6439249 C89.3771695,62.7532019 85.7168773,59.5418152 82.0562597,58.1223506 C80.5207912,57.526977 78.8739579,57.212746 77.2762465,56.7762604 C76.8426068,56.6578732 76.6865659,56.812679 76.8365344,57.2476606 C76.9994068,57.720135 77.1967622,58.1828334 77.408865,58.6361854 C78.8210406,61.6564553 78.6859281,64.7046568 77.5734725,67.7644606 C76.9848762,69.383529 77.7938165,70.9055886 79.5103749,71.2559158 C80.192986,71.3952517 80.902598,71.4040609 81.3364546,71.4464955 M82.8288736,1.06380879 C81.5708955,1.18896402 79.1745454,1.3566613 76.7993404,1.67809003 C70.9962238,2.46361373 65.4790557,4.20439955 60.2260402,6.76454933 C57.9341149,7.88149269 55.7405421,9.15152294 53.9119683,10.9552624 C53.2842262,11.574378 52.8387669,12.3029641 52.6748101,13.1752907 C52.5579149,13.7971994 52.895371,14.1170167 53.5124862,13.9514681 C53.8395323,13.8636982 54.1546504,13.7130822 54.4562138,13.5553759 C55.7323008,12.8880245 56.9896283,12.1844695 58.275041,11.5355959 C62.2752834,9.51667543 66.2478743,7.44457737 70.5909946,6.18410834 C73.5927488,5.31307085 76.5974307,4.49574806 79.7250802,4.2231997 C83.254489,3.91573679 86.7547282,4.22287741 90.2542083,4.67440313 C91.6621548,4.85606623 93.0899453,4.91203694 94.5107959,4.95715729 C95.146996,4.97724658 95.390654,4.49263261 95.1031874,3.92067854 C95.001365,3.71795928 94.8581197,3.49461358 94.6713911,3.38267216 C94.1207478,3.05254164 93.566743,2.69340519 92.9645921,2.48789277 C90.0540335,1.49470807 87.0440382,1.07444429 82.8288736,1.06380879 M109.410587,57.3340338 C109.744356,57.1178859 109.944531,57.0034736 110.128115,56.8668234 C111.268331,56.0177015 112.391521,55.1454823 113.545183,54.3148382 C116.470598,52.2084702 119.737263,51.0769164 123.361012,50.9134089 C126.035504,50.7926583 128.649921,51.1640417 131.268133,51.6265252 C132.539557,51.85116 133.841127,52.0493673 135.124588,52.0258402 C136.466388,52.0011315 137.170144,51.0033273 137.026465,49.6773263 C136.886473,48.3859177 136.257538,47.3385885 135.288653,46.4981684 C133.88049,45.2768037 132.227909,44.5559525 130.380142,44.2839413 C127.63148,43.8794696 124.938121,44.2574062 122.289004,44.9559121 C119.761228,45.622404 117.351215,46.5806742 115.350335,48.319956 C113.661428,49.7879786 112.156213,51.432078 110.855077,53.2477421 C110.126814,54.2639167 109.676909,55.4155598 109.415792,56.6344536 C109.378165,56.8095635 109.410587,56.9993912 109.410587,57.3340338 M71.8920222,34.0172368 C71.5700727,34.0172368 71.3539576,33.9800663 71.1564938,34.024542 C70.6472734,34.139384 70.143475,34.280976 69.6421705,34.4283691 C66.178583,35.4469071 62.7913352,35.3537659 59.4464863,33.8893959 C58.2338349,33.3585872 56.9526513,32.9420835 55.6637686,32.63172 C54.1093237,32.257436 53.2397671,32.8130608 52.6863044,34.3009578 C52.6364234,34.4351372 52.5812289,34.568457 52.5455531,34.7065038 C52.0440318,36.6565621 51.8123019,38.6437909 51.7867107,40.6506793 C51.7694692,42.0025708 52.364897,43.0044573 53.6448878,43.5977898 C55.5597775,44.4854788 57.5520912,44.8339798 59.6473117,44.5442427 C62.5597137,44.1412751 65.0711156,42.9220589 67.2302055,40.9377307 C68.3901565,39.8717088 69.4784306,38.7900023 70.122655,37.3106996 C70.5478367,36.3345962 71.1392523,35.4295036 71.654762,34.4918599 C71.721017,34.3712167 71.7782718,34.2456317 71.8920222,34.0172368 M110.496693,52.1165106 C110.694048,51.9045525 110.805847,51.7959413 110.904524,51.6768021 C111.853891,50.5310677 112.748171,49.3353786 113.758696,48.2455074 C116.728786,45.0421779 120.332474,42.8781203 124.706174,42.2081906 C126.658041,41.9091072 128.658487,41.9181313 130.637246,41.7941578 C131.936973,41.7126189 133.236807,41.681894 134.291466,40.7302845 C135.134564,39.9694696 135.469851,39.08264 135.168396,37.9861082 C134.84417,36.8064261 134.246139,35.7785417 133.372245,34.9123385 C132.608632,34.1554985 131.708713,33.7128894 130.604607,33.8109724 C129.347604,33.9228064 128.085397,34.0113282 126.83848,34.195677 C122.310691,34.865177 118.536649,37.020318 115.375709,40.2093594 C113.645162,41.9553018 112.532164,44.1635129 111.424588,46.3343386 C110.923826,47.3158135 110.489861,48.3481025 110.179406,49.4018774 C109.92794,50.2558336 110.027702,51.1603891 110.496693,52.1165106 M93.0800776,7.75837861 C92.791635,7.7860954 92.3588628,7.81123387 91.9311871,7.87193148 C89.8471357,8.16822173 88.3350896,9.41977412 87.8842084,11.2399503 C87.4469902,13.0051226 87.358614,14.7960779 87.8501591,16.5505073 C89.4303037,22.1902279 92.987147,26.160281 98.3575998,28.5575678 C98.5043152,28.6229923 98.6631754,28.6694018 98.8212766,28.7005564 C99.5210208,28.8384957 99.8045837,28.5672365 99.5926977,27.8867787 C99.3594497,27.1382107 99.0277407,26.420475 98.77248,25.6779231 C97.949226,23.2819254 97.474597,20.8468234 97.9455391,18.3040772 C98.3034898,16.3714225 98.6335721,14.4337186 98.9811128,12.4991301 C99.3174845,10.6272805 98.5765342,9.24219334 96.8110708,8.47654408 C95.6691203,7.98107974 94.459722,7.81101901 93.0800776,7.75837861 M109.567604,43.8149046 C109.62963,44.2200208 109.734272,44.9977021 109.878385,45.7681857 C109.909831,45.9364202 110.082246,46.0788715 110.189707,46.2331401 C110.341086,46.0991757 110.533453,45.9900274 110.634733,45.8256605 C110.811919,45.5378571 110.932176,45.2157838 111.077915,44.9087506 C112.142225,42.6653027 113.36019,40.5096245 115.144846,38.7450968 C117.515931,36.4006653 120.389187,34.847666 123.565633,33.870918 C125.456884,33.2892953 127.394762,32.85614 129.313772,32.3635762 C130.346093,32.0986554 130.840999,31.4680449 130.631607,30.1995186 C130.307598,28.235602 129.105139,26.7628525 127.559369,25.6205558 C125.407436,24.0302785 123.048497,23.7841578 120.769909,25.3225466 C119.787904,25.9854934 118.85708,26.7283676 117.941004,27.4801585 C114.982841,29.9077404 112.500284,32.6739397 111.209558,36.3688662 C110.403654,38.67559 109.630281,40.9682406 109.567604,43.8149046 M65.4557417,34.2574489 C66.2832248,34.1958919 67.1177562,34.1820335 67.9367812,34.063324 C69.8639243,33.7839002 71.7271979,33.291981 73.2872816,32.0556836 C74.5408138,31.062284 75.771032,30.0391265 76.994744,29.0097381 C77.1983888,28.8383883 77.3162598,28.5669142 77.4737104,28.3417422 C77.2261486,28.218091 76.982599,28.0852008 76.7288564,27.9755154 C76.6341908,27.9345848 76.5150185,27.9510215 76.4079912,27.9355517 C75.4619864,27.7983643 74.5063308,27.7069419 73.5723626,27.5131393 C70.6845758,26.9138982 68.0595319,25.760966 66.0491092,23.5576966 C64.9995471,22.4073427 64.1070018,21.1153969 63.1567681,19.8773806 C62.102001,18.5031439 60.5260855,18.3836824 59.2840476,19.5958082 C57.488764,21.3476592 56.2991012,23.4821738 55.3165532,25.7481819 C54.6723288,27.2339303 54.8870341,28.5940938 55.9979716,29.7713051 C58.5561098,32.4819634 61.5190435,34.3748693 65.4557417,34.2574489 M104.029508,10.9805083 C103.830743,10.9805083 103.631977,10.9827643 103.433212,10.9800786 C102.090979,10.9624602 101.106153,11.5190518 100.533823,12.7443914 C100.443061,12.9387312 100.326708,13.1220057 100.244947,13.3196758 C98.998029,16.3342519 98.6875738,19.4786027 98.9908722,22.6916009 C99.2137103,25.0520394 100.113304,27.2324263 101.00162,29.4006737 C101.265773,30.0455723 101.718389,30.630955 102.159836,31.1846461 C103.088383,32.3489658 104.066159,33.474611 105.024743,34.6151888 C105.232617,34.8624913 105.426394,35.1258007 105.662569,35.3435601 C105.809176,35.4785988 106.023231,35.5416599 106.20714,35.6370572 C106.301806,35.4541049 106.449497,35.2799619 106.48192,35.0868038 C106.620719,34.2577712 106.720373,33.4224003 106.843991,32.5907894 C107.312114,29.4391334 108.295963,26.4908412 110.104584,23.8103705 C110.960478,22.5419517 111.676488,21.1594429 112.289699,19.7572745 C113.065349,17.9837228 112.715098,16.2406809 111.5327,14.7534284 C109.636245,12.3678514 107.141542,11.0447511 104.029508,10.9805083 M78.0540654,27.3267493 C78.7697499,27.2599282 79.4932418,27.2382275 80.1998176,27.1183363 C82.6322772,26.7058074 85.0123618,25.9848488 87.5125946,25.9596029 C87.8954858,25.955628 88.2752323,25.6701881 88.656497,25.5148452 C88.4198874,25.1582871 88.2444362,24.7341559 87.9345232,24.4581698 C87.1569212,23.7658948 86.3000517,23.1618193 85.5080275,22.4842622 C83.1444254,20.4623336 81.4836037,18.0139104 80.8975015,14.9218777 C80.6711934,13.7279075 80.4178845,12.538879 80.1772627,11.3474871 C79.9790398,10.3661196 79.3964075,9.72036155 78.3965096,9.57597645 C77.6895001,9.4738111 76.9465979,9.42063356 76.2441428,9.51828687 C73.1552053,9.94768214 70.1811026,10.8074395 67.3367991,12.0788664 C66.0820741,12.6397552 64.8912185,13.3037763 63.991408,14.390532 C62.9893413,15.6008315 62.8074924,16.8818195 63.5522379,18.2727078 C63.7296409,18.6039126 63.9203817,18.9294237 64.1245686,19.2450512 C65.7706429,21.7898386 67.683906,24.0724983 70.4666173,25.4799307 C72.8455091,26.682925 75.4108042,27.1216666 78.0540654,27.3267493 M32.4948939,58.3673971 C34.5224497,58.2583563 36.5079319,57.5386868 37.9685788,55.9036115 C40.1061981,53.5109441 41.7327537,50.7963109 42.4413898,47.624673 C42.7837255,46.0923002 42.9773941,44.5159888 43.4561436,43.0283066 C43.915266,41.6017517 44.1785512,40.1618756 44.3965096,38.6944976 C45.0000702,34.6309809 45.418095,30.5312606 46.7594611,26.6074021 C47.0140713,25.862809 46.8331983,25.3411319 46.2936156,24.938594 C45.7480689,24.5316515 45.1400624,24.5205862 44.4877052,24.9747977 C43.9719786,25.3338267 43.4814094,25.7331418 43.0088408,26.1472821 C41.3467179,27.6043469 39.7197285,29.092029 37.8730457,30.3387471 C34.4843883,32.6265634 30.7929746,34.3254517 27.0871387,36.0114486 C24.7279825,37.0847756 22.3495245,38.1243698 20.1804584,39.5649979 C18.4532732,40.7121289 17.0120365,42.0980755 16.1706735,44.0280445 C15.8119638,44.851061 15.7602393,45.6889028 15.9367748,46.5473711 C16.2207714,47.928913 16.9967469,49.0535913 17.9607522,50.0361405 C20.9594701,53.0925066 24.4132982,55.5314761 28.3164894,57.3291995 C29.5809738,57.9115742 30.9016285,58.3359203 32.4948939,58.3673971 M102.55433,80.5922817 C105.528216,80.435972 108.522596,79.6777353 111.286114,78.1828554 C113.851192,76.7954048 116.392198,75.3562807 118.875514,73.8304611 C122.435069,71.6434136 125.950055,69.3823472 129.139405,66.6682511 C131.453886,64.6985333 133.082827,62.2159475 134.524714,59.5984305 C135.381041,58.0440346 135.137492,56.6070591 133.940781,55.3073784 C132.92093,54.1994591 131.674663,53.4285458 130.277018,52.8907542 C128.405612,52.1705476 126.440407,52.0707457 124.465661,52.1109243 C121.47334,52.1717293 118.574385,52.6753583 115.895231,54.0754856 C113.694393,55.2258395 111.762912,56.7570305 109.844769,58.3104595 C108.623009,59.2999916 107.629726,60.4541055 106.877281,61.8258714 C103.668195,67.6773354 98.7259605,71.6111848 92.7195244,74.3663189 C92.0657575,74.6662618 91.419039,74.9847899 90.7901042,75.3322165 C90.606954,75.4333076 90.4972157,75.6647105 90.3536451,75.8363827 C90.5429762,75.9487538 90.7185357,76.1145174 90.9232648,76.165224 C93.5252116,76.8099078 96.0545056,77.5785651 98.2260657,79.2603722 C99.414861,80.1809346 100.851652,80.5901331 102.55433,80.5922817 M85.4815689,89.4736842 C79.903676,89.1143329 75.0032978,88.8364131 70.2656835,87.3621596 C66.503352,86.1912866 62.9220019,84.5925225 59.3353384,82.993436 C52.8675027,80.1100312 46.8981521,76.38438 41.1354825,72.3373 C34.241164,67.4955649 27.4546319,62.5034286 20.5861213,57.6251674 C16.4484892,54.6863291 12.2774585,51.7906773 8.05437799,48.9744159 C6.05555804,47.6415394 3.78369362,46.8211012 1.42464583,46.2879291 C1.16331256,46.228843 0.865436013,46.28664 0.624814222,46.1908129 C0.387011794,46.0959528 0.0775324833,45.9093479 0.0185427338,45.7019018 C-0.0827374612,45.3457734 0.247995509,45.1832327 0.568535398,45.1110402 C1.39319908,44.9254022 2.23683925,44.8026104 3.04155052,44.5547708 C5.31786086,43.8534717 7.35474221,42.656386 9.37785205,41.4406076 C14.1256594,38.5871756 18.5546618,35.2811436 23.009147,32.0112078 C28.4940009,27.9847543 33.931034,23.8922317 39.4775886,19.9507549 C43.0126361,17.4387335 46.6947242,15.1296462 50.0428263,12.3618354 C51.9556556,10.7806896 53.815893,9.13744969 55.9566571,7.84367755 C61.1240073,4.7207052 66.7112258,2.65526776 72.5871036,1.31508613 C76.8295944,0.347362188 81.1281471,-0.0928834501 85.4853642,0.0162648096 C89.2654794,0.111017531 92.8915056,0.880641677 96.383612,2.311064 C99.5847818,3.62234712 102.839628,4.81416877 105.991784,6.23105499 C109.537892,7.82487741 112.983588,9.63678149 116.496297,11.3054822 C118.673821,12.3399198 120.866201,13.3543755 123.102824,14.2536669 C126.850516,15.7604715 130.41289,17.5753836 133.674676,19.9593492 C137.393199,22.6770979 141.325994,25.1221908 144.685482,28.2961921 C146.172804,29.701476 147.521869,31.2497483 148.947383,32.720027 C151.902183,35.767369 155.201163,38.391117 158.813527,40.6409033 C161.139609,42.0894811 163.460813,43.5453642 166.090736,44.3926598 C167.057452,44.7042051 168.089665,44.8161465 169.092599,45.0165023 C169.216109,45.0412111 169.373993,45.0083377 169.461719,45.0736547 C169.659182,45.220833 169.822705,45.4128093 170.000108,45.5865226 C169.817934,45.7591617 169.65105,46.0625423 169.451525,46.0853173 C164.202956,46.6847733 160.15511,49.6842018 156.064214,52.6078927 C153.113859,54.7165167 150.418873,57.1263728 147.704369,59.5137761 C144.723435,62.1356978 141.485179,64.3838726 138.058352,66.4117098 C134.418771,68.5654542 130.91105,70.9381397 127.348676,73.2198325 C123.317421,75.8018978 119.366951,78.5161014 115.095508,80.7098095 C110.544405,83.0470433 105.925855,85.2475195 101.056272,86.8657284 C97.622722,88.0067359 94.0643606,88.6358424 90.476938,89.0660971 C88.5989169,89.2912691 86.7037628,89.3772126 85.4815689,89.4736842" id="Fill-1" fill="#FFFFFF" mask="url(#mask-2)"></path>
                </g>
                <path d="M91.3023348,109.242808 L91.3023348,119.437853 C93.6223824,119.541855 95.8654452,119.431559 97.0823417,117.235577 C98.2251584,115.17325 98.2557736,113.002762 96.8023348,111.03505 C95.4663308,109.226487 93.4814857,108.934323 91.3023348,109.242808 M85.5007632,108.38754 C85.6757389,108.37954 85.8507146,108.364393 86.0255785,108.364713 C88.4643995,108.36898 90.9036674,108.34626 93.3417062,108.390314 C95.4172796,108.427754 97.4457011,108.729733 99.3667461,109.556306 C103.698008,111.420123 102.793297,116.066492 100.588224,117.976176 C99.1086402,119.257797 97.3194415,119.832313 95.3297917,120.147518 C95.4481182,120.203199 95.5106893,120.243733 95.5798527,120.26368 C98.5337681,121.112867 100.592693,122.909376 101.927469,125.556779 C102.69877,127.08683 103.5789,128.573148 104.507745,130.022025 C105.057589,130.879959 105.9204,131.441461 107.040982,131.465461 C107.463449,131.474422 107.887815,131.404554 108.362573,131.366366 C107.787366,131.883815 107.10467,132.075925 106.388566,132.166166 C104.47903,132.406917 102.785475,131.856188 101.241533,130.821504 C99.5276432,129.672792 98.312758,128.128874 97.3265925,126.381432 C96.4108195,124.758793 95.4386208,123.163033 94.4324549,121.589781 C93.7375803,120.50315 92.6873911,120.027196 91.3195419,120.2896 C91.3065807,120.318401 91.2662447,120.365975 91.2662447,120.413655 C91.2665799,122.52793 91.2763007,124.642311 91.2713844,126.756692 C91.269038,127.732494 91.6119501,128.49464 92.6125293,128.92814 L85.497076,128.92814 C86.7822421,128.431386 86.8375505,127.382942 86.83688,126.299618 C86.8336398,121.234042 86.8353158,116.168467 86.8353158,111.102784 C86.8353158,111.067264 86.8350923,111.031743 86.8354275,110.996116 C86.8485004,109.924845 86.728051,108.916616 85.5007632,108.38754" id="Fill-4" fill="#FFFFFF"></path>
                <path d="M26.3976433,108.101588 C26.521677,110.734594 26.6457106,113.367487 26.7697443,116.000493 C26.7408687,116.009475 26.7119932,116.018456 26.6831176,116.027325 C26.5310834,115.718927 26.3837524,115.407834 26.2262494,115.102354 C24.9658967,112.659866 23.3170366,110.580226 20.9215681,109.222241 C19.457774,108.392585 17.8978375,108.016939 16.236727,108.429297 C14.2158752,108.931019 12.9293815,110.339638 12.2711499,112.263226 C10.7429327,116.728771 11.1485031,121.087887 13.4705795,125.160609 C15.0551259,127.940124 17.6411293,128.868574 20.89138,128.067659 C21.6254099,127.886684 22.3250954,127.54382 23.0219371,127.231492 C23.1769245,127.162111 23.349084,126.908162 23.3503966,126.737741 C23.3639593,125.055078 23.3408808,123.371966 23.3328962,121.688966 C23.328193,120.663741 22.9683423,119.867766 21.9925889,119.370309 L25.3293569,119.370309 L28.8304094,119.370309 C28.6817658,119.484597 28.6253272,119.546008 28.5560915,119.578453 C27.7450601,119.957243 27.4181319,120.631071 27.4131006,121.513493 C27.4050066,122.916048 27.3729591,124.318716 27.3863032,125.720823 C27.3902407,126.139243 27.2566913,126.419575 26.9507634,126.678127 C25.6498319,127.77655 24.1256616,128.364157 22.5081927,128.716115 C19.9010795,129.28329 17.2808411,129.52444 14.6720872,128.740365 C10.043466,127.349261 6.99545363,123.231183 6.95935918,118.359903 C6.92424913,113.626376 10.0277157,109.404563 14.6555713,107.93779 C17.5867689,107.008778 20.4391056,107.186722 23.1744088,108.692676 C23.4783678,108.859842 23.791952,109.017577 24.1165833,109.134111 C25.0025381,109.452052 25.5607989,109.241775 26.0744339,108.428511 C26.1425759,108.32051 26.2031708,108.207456 26.2673752,108.096761 C26.3106885,108.098445 26.3542206,108.100017 26.3976433,108.101588" id="Fill-6" fill="#FFFFFF"></path>
                <path d="M161.914731,108.142846 L161.914731,115.471619 C161.468154,114.418626 161.07416,113.378377 160.592709,112.383131 C160.010463,111.179452 159.227176,110.120593 158.166541,109.307839 C156.817407,108.274132 155.314458,108.026222 153.712573,108.45527 C152.220884,108.854767 151.628253,110.088448 152.159773,111.587069 C152.504463,112.558855 153.169355,113.294237 153.937009,113.898558 C155.238261,114.922903 156.615709,115.843822 157.919803,116.864445 C159.091727,117.781529 160.282564,118.695341 161.331502,119.751832 C162.917535,121.349481 163.483382,123.313694 162.674186,125.524349 C161.861382,127.745043 160.118582,128.754613 157.956316,129.113393 C155.297513,129.554509 152.90928,128.818338 150.730834,127.256104 C149.799526,126.588171 149.457678,126.681334 149.039962,127.765345 C148.982677,127.914 148.932608,128.065813 148.791256,128.197889 L148.791256,120.809563 C148.819351,120.798284 148.847447,120.787005 148.875542,120.775952 C148.958627,120.965662 149.0451,121.153906 149.124248,121.345534 C149.915079,123.258878 150.873936,125.063382 152.346712,126.522302 C153.384609,127.55037 154.576102,128.244019 156.054126,128.359853 C158.40836,128.544375 159.947932,126.298981 158.895933,124.111221 C158.596392,123.488403 158.14577,122.888932 157.631851,122.440823 C156.619973,121.558366 155.534193,120.761289 154.444479,119.980003 C152.741581,118.759293 150.948493,117.66265 149.532673,116.060939 C147.808239,114.110036 147.657485,111.708204 149.162402,109.892196 C150.081356,108.783146 151.291871,108.154237 152.627887,107.755868 C155.306805,106.957325 157.774843,107.38423 160.015164,109.119482 C160.678416,109.633346 161.079516,109.54774 161.501059,108.79059 C161.623608,108.57054 161.723309,108.336955 161.833505,108.109573 C161.860617,108.120739 161.887619,108.13168 161.914731,108.142846" id="Fill-8" fill="#FFFFFF"></path>
                <path d="M60.7520064,128.245614 L53.6143522,128.245614 C54.9010066,127.734629 54.9829322,126.652472 54.9848245,125.538542 C54.989277,123.116785 54.9940634,120.694919 54.9751404,118.273161 C54.9730255,118.007041 54.8784103,117.699279 54.7217945,117.483043 C52.7535771,114.768597 50.7682177,112.065754 48.7816339,109.363779 C48.2180617,108.597193 47.6269954,107.853054 46.7251462,107.371891 L53.6746832,107.371891 C53.5615903,107.650157 53.3301728,107.96204 53.3400796,108.266549 C53.350209,108.581035 53.547565,108.920788 53.7445871,109.193631 C54.8538104,110.729949 55.9869657,112.249891 57.1131084,113.774713 C57.6516355,114.504103 58.1923888,115.232192 58.7751067,116.018841 C59.6263089,115.020619 60.4461212,114.070438 61.2527987,113.10963 C61.9923551,112.228853 62.7241196,111.341461 63.4451982,110.446369 C63.661366,110.17808 63.8539356,109.885717 64.0167849,109.583702 C64.5718975,108.554141 64.4667077,108.116463 63.4653457,107.368421 L68.5964912,107.368421 C67.8578253,107.911505 67.09545,108.432793 66.3777107,109.006892 C64.0247994,110.888927 62.2100812,113.258848 60.2143698,115.467189 C59.5529544,116.199073 59.3213143,116.942453 59.3442445,117.900116 C59.4046869,120.429016 59.3642807,122.960192 59.3655051,125.490502 C59.3656164,125.688953 59.3798643,125.887404 59.3826471,126.085964 C59.3967837,127.057942 59.7563212,127.813901 60.7520064,128.245614" id="Fill-10" fill="#FFFFFF"></path>
                <path d="M128.245614,128.245614 L122.280702,128.245614 C123.369978,127.724619 123.422197,126.632576 123.423041,125.524499 C123.427166,120.381823 123.425009,115.239254 123.424541,110.096686 C123.424541,110.006549 123.414041,109.916413 123.415259,109.826492 C123.429134,108.774101 123.233948,107.852257 122.286233,107.368421 L128.241677,107.368421 C127.129619,107.93546 127.12615,109.063471 127.1269,110.204916 C127.130744,115.275223 127.128588,120.345638 127.128588,125.416053 C127.128588,125.542375 127.12915,125.668696 127.128588,125.795018 C127.123525,126.83105 127.300993,127.751703 128.245614,128.245614" id="Fill-12" fill="#FFFFFF"></path>
            </g>
        </g>
    </g>
</svg>