<?xml version="1.0" encoding="UTF-8"?>
<svg width="26px" height="20px" viewBox="0 0 26 20" version="1.1" xmlns="http://www.w3.org/2000/svg" xmlns:xlink="http://www.w3.org/1999/xlink">
    <title>Combined Shape</title>
    <g id="Page-1" stroke="none" stroke-width="1" fill="none" fill-rule="evenodd">
        <g id="Index-stage-2" transform="translate(-843.000000, -56.000000)" fill="#FFFFFF">
            <path d="M859,76 L859,73 L862,73 L862,60 L857.294,76 L853.706,76 L849,60 L849,73 L851,73 L851,76 L843,76 L843,73 C844.104569,73 845,72.1045695 845,71 L845,71 L845,61 C845,59.8954305 844.104569,59 843,59 L843,59 L843,56 L853,56 L856.431373,68 L860,56 L869,56 L869,59 C867.895431,59 867,59.8954305 867,61 L867,61 L867,71 C867,72.1045695 867.895431,73 869,73 L869,73 L869,76 L859,76 Z" id="Combined-Shape"></path>
        </g>
    </g>
</svg>