<?xml version="1.0" encoding="UTF-8"?>
<svg width="51px" height="35px" viewBox="0 0 51 35" version="1.1" xmlns="http://www.w3.org/2000/svg" xmlns:xlink="http://www.w3.org/1999/xlink">
    <title>D55A5B5D-01B0-487E-AB26-79F599C11E24</title>
    <g id="Page-1" stroke="none" stroke-width="1" fill="none" fill-rule="evenodd">
        <g id="Gyris-Metaverse-and-Game" transform="translate(-310.000000, -371.000000)" fill="#FFFFFF" fill-rule="nonzero">
            <path d="M320.30837,406 C323.286344,406 325.71072,405.034091 327.581498,403.102273 C329.452276,401.170455 330.387665,398.727273 330.387665,395.772727 C330.387665,393.651515 329.73862,391.852273 328.440529,390.375 C327.142438,388.897727 325.309838,388.159091 322.942731,388.159091 C322.331865,388.159091 321.778267,388.215909 321.281938,388.329545 C320.785609,388.443182 320.384728,388.575758 320.079295,388.727273 L320.079295,388.727273 L319.85022,388.386364 C320.461087,387.098485 321.491924,385.715909 322.942731,384.238636 C324.393539,382.761364 326.207048,381.416667 328.38326,380.204545 C330.559471,378.992424 333.098385,378.159091 336,377.704545 L336,377.704545 L332.334802,371 C328.36417,371.833333 324.679883,373.481061 321.281938,375.943182 C317.883994,378.405303 315.154185,381.340909 313.092511,384.75 C311.030837,388.159091 310,391.795455 310,395.659091 C310,398.689394 310.935389,401.170455 312.806167,403.102273 C314.676946,405.034091 317.17768,406 320.30837,406 Z M345.30837,406 C348.286344,406 350.71072,405.034091 352.581498,403.102273 C354.452276,401.170455 355.387665,398.727273 355.387665,395.772727 C355.387665,393.651515 354.73862,391.852273 353.440529,390.375 C352.142438,388.897727 350.309838,388.159091 347.942731,388.159091 C347.331865,388.159091 346.778267,388.215909 346.281938,388.329545 C345.785609,388.443182 345.384728,388.575758 345.079295,388.727273 L345.079295,388.727273 L344.85022,388.386364 C345.461087,387.098485 346.491924,385.715909 347.942731,384.238636 C349.393539,382.761364 351.207048,381.416667 353.38326,380.204545 C355.559471,378.992424 358.098385,378.159091 361,377.704545 L361,377.704545 L357.334802,371 C353.36417,371.833333 349.679883,373.481061 346.281938,375.943182 C342.883994,378.405303 340.154185,381.340909 338.092511,384.75 C336.030837,388.159091 335,391.795455 335,395.659091 C335,398.689394 335.935389,401.170455 337.806167,403.102273 C339.676946,405.034091 342.17768,406 345.30837,406 Z" id="“"></path>
        </g>
    </g>
</svg>