<?xml version="1.0" encoding="UTF-8"?>
<svg width="22px" height="22px" viewBox="0 0 22 22" version="1.1" xmlns="http://www.w3.org/2000/svg" xmlns:xlink="http://www.w3.org/1999/xlink">
    <title>5AD5A0F8-457E-4D0F-BC05-D535BB096E97</title>
    <g id="Page-1" stroke="none" stroke-width="1" fill="none" fill-rule="evenodd">
        <g id="Index-video" transform="translate(-1087.000000, -56.000000)" fill="#FFFFFF" fill-rule="nonzero">
            <g id="Logomark-Transparent-White" transform="translate(1087.098945, 56.117621)">
                <path d="M10.4010551,-0.117620562 C4.60295508,-0.117620562 -0.0989449173,4.58427944 -0.0989449173,10.3823794 C-0.0989449173,16.1804794 4.60295508,20.8823794 10.4010551,20.8823794 C16.1991551,20.8823794 20.9010551,16.1804794 20.9010551,10.3823794 C20.9010551,4.58427944 16.2012551,-0.117620562 10.4010551,-0.117620562 Z M5.08175508,10.7351794 L5.12585508,10.6637794 L7.85795508,6.39027944 C7.89785508,6.32937944 7.99235508,6.33567944 8.02175508,6.40287944 C8.47745508,7.42557944 8.87225508,8.69817944 8.68745508,9.48987944 C8.60975508,9.81537944 8.39345508,10.2563794 8.14985508,10.6637794 C8.11835508,10.7225794 8.08475508,10.7813794 8.04695508,10.8380794 C8.03015508,10.8632794 8.00075508,10.8779794 7.96925508,10.8779794 L5.16155508,10.8779794 C5.08595508,10.8779794 5.04185508,10.7960794 5.08175508,10.7351794 Z M17.2554551,12.2051794 C17.2554551,12.2450794 17.2323551,12.2786794 17.1987551,12.2933794 C16.9866551,12.3836794 16.2621551,12.7175794 15.9618551,13.1354794 C15.1932551,14.2043794 14.6073551,15.7331794 13.2948551,15.7331794 L7.82225508,15.7331794 C5.88185508,15.7331794 4.31105508,14.1560794 4.31105508,12.2093794 L4.31105508,12.1463794 C4.31105508,12.0959794 4.35305508,12.0539794 4.40555508,12.0539794 L7.45475508,12.0539794 C7.51565508,12.0539794 7.55975508,12.1085794 7.55555508,12.1694794 C7.53245508,12.3668794 7.57025508,12.5705794 7.66475508,12.7553794 C7.84535508,13.1228794 8.22125508,13.3517794 8.62655508,13.3517794 L10.1364551,13.3517794 L10.1364551,12.1736794 L8.64335508,12.1736794 C8.56775508,12.1736794 8.52155508,12.0854794 8.56565508,12.0224794 C8.58245508,11.9972794 8.59925508,11.9720794 8.62025508,11.9426794 C8.76095508,11.7410794 8.96255508,11.4302794 9.16415508,11.0753794 C9.30065508,10.8359794 9.43295508,10.5797794 9.54005508,10.3235794 C9.56105508,10.2773794 9.57785508,10.2290794 9.59675508,10.1828794 C9.62615508,10.1009794 9.65555508,10.0232794 9.67655508,9.94767944 C9.69755508,9.88257944 9.71645508,9.81537944 9.73325508,9.75237944 C9.78365508,9.53397944 9.80465508,9.30297944 9.80465508,9.06357944 C9.80465508,8.96907944 9.80045508,8.87037944 9.79205508,8.77797944 C9.78785508,8.67507944 9.77525508,8.57217944 9.76265508,8.46927944 C9.75425508,8.37897944 9.73745508,8.28867944 9.72065508,8.19627944 C9.69755508,8.05977944 9.66815508,7.92327944 9.63455508,7.78677944 L9.62195508,7.73427944 C9.59675508,7.63977944 9.57365508,7.55157944 9.54425508,7.45707944 C9.45815508,7.16307944 9.36155508,6.87537944 9.25655508,6.60657944 C9.21875508,6.49947944 9.17675508,6.39657944 9.13265508,6.29577944 C9.06965508,6.14037944 9.00455508,5.99967944 8.94575508,5.86737944 C8.91425508,5.80647944 8.88905508,5.75187944 8.86385508,5.69517944 C8.83445508,5.63217944 8.80505508,5.56917944 8.77355508,5.50827944 C8.75255508,5.46207944 8.72735508,5.41797944 8.71055508,5.37597944 L8.52575508,5.03577944 C8.50055508,4.98957944 8.54255508,4.93287944 8.59295508,4.94757944 L9.74795508,5.26047944 L9.75215508,5.26047944 C9.75425508,5.26047944 9.75425508,5.26047944 9.75635508,5.26047944 L9.90755508,5.30457944 L10.0755551,5.35077944 L10.1364551,5.36757944 L10.1364551,4.68297944 C10.1364551,4.35117944 10.4010551,4.08237944 10.7307551,4.08237944 C10.8945551,4.08237944 11.0436551,4.14957944 11.1486551,4.25877944 C11.2557551,4.36797944 11.3229551,4.51707944 11.3229551,4.68297944 L11.3229551,5.70147944 L11.4468551,5.73507944 C11.4552551,5.73927944 11.4657551,5.74347944 11.4741551,5.74977944 C11.5035551,5.77077944 11.5476551,5.80437944 11.6022551,5.84637944 C11.6463551,5.87997944 11.6925551,5.92197944 11.7471551,5.96607944 C11.8584551,6.05637944 11.9928551,6.17187944 12.1377551,6.30417944 C12.1755551,6.33777944 12.2133551,6.37137944 12.2490551,6.40707944 C12.4359551,6.58137944 12.6459551,6.78507944 12.8475551,7.01187944 C12.9042551,7.07697944 12.9588551,7.13997944 13.0155551,7.20927944 C13.0701551,7.27857944 13.1310551,7.34577944 13.1814551,7.41297944 C13.2507551,7.50327944 13.3221551,7.59777944 13.3872551,7.69647944 C13.4166551,7.74267944 13.4523551,7.79097944 13.4796551,7.83717944 C13.5636551,7.96107944 13.6350551,8.08917944 13.7043551,8.21727944 C13.7337551,8.27607944 13.7631551,8.34117944 13.7883551,8.40417944 C13.8660551,8.57637944 13.9269551,8.75067944 13.9647551,8.92707944 C13.9773551,8.96487944 13.9857551,9.00477944 13.9899551,9.04257944 L13.9899551,9.05097944 C14.0025551,9.10137944 14.0067551,9.15597944 14.0109551,9.21267944 C14.0277551,9.39117944 14.0193551,9.57177944 13.9815551,9.75237944 C13.9647551,9.82797944 13.9437551,9.89937944 13.9185551,9.97707944 C13.8912551,10.0505794 13.8660551,10.1261794 13.8324551,10.1996794 C13.7673551,10.3487794 13.6917551,10.4999794 13.6014551,10.6385794 C13.5720551,10.6910794 13.5363551,10.7456794 13.5027551,10.7981794 C13.4649551,10.8527794 13.4250551,10.9052794 13.3914551,10.9556794 C13.3431551,11.0207794 13.2927551,11.0879794 13.2402551,11.1488794 C13.1940551,11.2118794 13.1478551,11.2748794 13.0953551,11.3315794 C13.0239551,11.4176794 12.9546551,11.4974794 12.8811551,11.5751794 C12.8391551,11.6255794 12.7929551,11.6780794 12.7446551,11.7242794 C12.6984551,11.7767794 12.6501551,11.8229794 12.6081551,11.8649794 C12.5346551,11.9384794 12.4758551,11.9930794 12.4254551,12.0413794 L12.3057551,12.1484794 C12.2889551,12.1652794 12.2658551,12.1736794 12.2427551,12.1736794 L11.3229551,12.1736794 L11.3229551,13.3517794 L12.4800551,13.3517794 C12.7383551,13.3517794 12.9840551,13.2614794 13.1835551,13.0913794 C13.2507551,13.0325794 13.5468551,12.7763794 13.8975551,12.3899794 C13.9101551,12.3752794 13.9248551,12.3668794 13.9416551,12.3626794 L17.1357551,11.4386794 C17.1966551,11.4218794 17.2554551,11.4659794 17.2554551,11.5289794 L17.2554551,12.2051794 L17.2554551,12.2051794 Z" id="Shape"></path>
            </g>
        </g>
    </g>
</svg>