<?xml version="1.0" encoding="UTF-8"?>
<svg width="1923px" height="1022px" viewBox="0 0 1923 1022" version="1.1" xmlns="http://www.w3.org/2000/svg" xmlns:xlink="http://www.w3.org/1999/xlink">
    <title>FFD6BA25-2A9A-49F4-B56C-80BA7A94116E</title>
    <g id="Page-1" stroke="none" stroke-width="1" fill="none" fill-rule="evenodd" fill-opacity="0.0217797339" opacity="0.616379511" stroke-opacity="0.174277139">
        <g id="Index-video" transform="translate(2.000000, -1860.000000)" fill="#FFFFFF" stroke="#FFFFFF">
            <g id="Group-3" transform="translate(-1.000000, 1861.000000)">
                <path d="M1023,481.290928 C1019.08203,474.758938 1016.74157,474.330333 1013.07257,479.698793 C1010.64721,483.245076 1008.99742,487.383415 1007,491.25539 C1007.38549,491.504804 1007.77097,491.751797 1008.15646,492 C1012.98537,488.515465 1017.81543,485.03093 1023,481.290928 M503.517813,518 C490.788908,526.267306 494.38395,539.605259 490,551 C503.278482,542.595482 507.606715,532.215613 503.517813,518 M1729.76209,534.998406 C1738.417,535.098189 1745.90009,530.49957 1745.99671,525.017691 C1746.14164,516.723424 1741.49149,511.024734 1734.55716,511 C1726.81766,510.971763 1720.26857,517.211249 1720.00844,524.862474 C1719.79786,531.035439 1723.54249,534.925725 1729.76209,534.998406 M1570,711.520179 C1567.9746,707.823787 1566.90723,702.383175 1563.70386,700.825877 C1558.48255,698.286068 1553.49734,702.037369 1550.06782,706.201066 C1548.09585,708.597179 1546.23199,711.333256 1545.33609,714.196675 C1543.56915,719.852248 1549.08743,727.191291 1554.45164,726.996191 C1561.61012,726.734499 1568.97239,719.066005 1570,711.520179 M185,464.180579 C185,456.107511 178.261328,449.127058 170.346696,449.001837 C163.87018,448.899941 159.964047,453.043281 160,459.977084 C160.047687,468.770785 167.11468,476.177235 175.286475,475.99677 C181.180004,475.866638 185,471.218732 185,464.180579 M915.256138,507.965387 C923.820872,507.207875 930.619965,502.997285 935.590229,495.959549 C936.435496,494.764253 935.885893,491.01973 934.736617,490.094975 C930.578238,486.747654 926.049086,483.763103 921.313685,481.371282 C919.6768,480.543674 915.504115,481.212647 915.095192,482.268983 C912.641653,488.62299 910.513583,495.194658 909.152096,501.883151 C908.324712,505.949863 910.945158,508.31832 915.256138,507.965387 M982.334412,415 C982.889997,414.70804 983.445582,414.414847 984,414.124119 C983.353374,411.431185 982.818798,408.701293 982.037945,406.052708 C978.409134,393.75711 977.02484,381.250858 978.830492,368.460036 C979.801598,361.5848 981.271097,354.768696 981.864032,347.863894 C982.05662,345.615676 980.585954,341.581202 979.161975,341.180835 C976.95014,340.556261 973.502245,341.618159 971.73978,343.312022 C969.949302,345.034219 969.160278,348.298755 968.629204,351.038501 C965.394906,367.764013 966.962449,384.105171 973.45439,399.693638 C975.71408,405.120159 979.33472,409.915947 982.334412,415 M947.514348,556.982121 C950.308548,556.682223 953.595985,556.579401 956.753687,555.884128 C958.358241,555.530371 960.634724,554.345469 960.951718,553.11038 C961.272384,551.861826 959.938316,549.487125 958.650757,548.649859 C953.225139,545.119634 947.294043,542.333645 942.040997,538.584311 C938.062048,535.743239 934.176115,532.297475 931.477381,528.292309 C929.421203,525.240697 927.549836,524.298161 924.611215,525.516113 C919.995829,527.428114 913.72938,526.904211 912.044049,533.421173 C911.865357,534.113998 912.268025,535.02838 912.576452,535.766496 C916.69248,545.625176 936.04993,557.524385 947.514348,556.982121 M1054.25057,448.738608 C1054.84001,448.82615 1055.42944,448.912458 1056.01766,449 C1056.7717,447.664683 1057.79323,446.415675 1058.23863,444.979254 C1062.21822,432.166131 1069.55164,421.420715 1078.54686,411.907045 C1084.81641,405.273615 1091.90172,399.445321 1098.49926,393.125069 C1101.42827,390.32004 1104.97577,387.146351 1101.67155,382.663238 C1098.30198,378.09135 1094.16868,380.347702 1090.35007,382.475825 C1089.64686,382.867912 1088.96907,383.322882 1088.33486,383.822238 C1070.41219,397.965746 1059.55911,416.68854 1054.35103,438.924092 C1053.62483,442.027501 1054.25057,445.460116 1054.25057,448.738608 M162,487.529462 C162.041374,476.675613 153.949808,469.691038 144.404596,472.703302 C136.270276,475.269485 129.907208,480.513371 127.457995,488.659213 C126.414789,492.133318 127.216127,497.253561 129.228025,500.286433 C132.685019,505.498802 142.374375,506.246716 150.027403,503.228391 C157.979711,500.091272 161.971745,494.858296 162,487.529462 M1657.26765,618.003364 C1645.80625,618.225138 1633.81447,633.482723 1636.34021,644.628395 C1638.24248,653.026733 1647.9339,658.531098 1655.00648,654.822741 C1663.94458,650.135184 1669.80818,642.951152 1670.90447,632.659856 C1671.8256,624.010659 1665.99629,617.834912 1657.26765,618.003364 M820,522.880191 C820.321744,525.307039 820.465292,526.523595 820.647201,527.73514 C822.617265,540.80905 825.053859,542.861284 837.953327,541.733683 C858.382847,539.947062 872.219086,528.116019 882.511189,511.178195 C883.315549,509.856396 882.85397,507.745276 882.980193,506 C881.29846,506.144082 879.483081,505.922321 877.956033,506.48988 C865.8931,510.982745 854.051675,516.177228 841.791983,520.002302 C835.094754,522.092123 827.715674,521.941776 820,522.880191 M888,481.07411 C884.990621,480.273043 884.409928,479.958208 883.857234,480.0044 C882.451153,480.11988 881.030463,480.283984 879.666991,480.627992 C863.011928,484.842405 846.326431,487.521542 829.274501,482.636129 C827.028423,481.993088 824.288086,482.001597 822.070009,482.671381 C820.203755,483.23541 817.988112,484.878873 817.26742,486.60378 C813.645695,495.26235 818.044112,503.862572 827.170857,505.717546 C845.541217,509.45059 862.243757,504.883659 877.083697,493.975051 C881.175332,490.966493 883.871843,486.064062 888,481.07411 M1626.99882,667.758451 C1627.0708,659.62808 1623.86609,655.502996 1616.02647,653.638299 C1603.05283,650.550234 1587.06524,658.968599 1580.44344,672.374818 C1576.51163,680.332151 1577.31911,687.274246 1582.90787,693.548391 C1589.17452,700.586081 1597.52406,702.785964 1605.56405,699.517601 C1617.09671,694.831051 1626.88723,680.32247 1626.99882,667.758451 M1045,532.728159 C1042.98527,523.653966 1041.14599,513.014155 1038.16193,502.707376 C1036.04781,495.410172 1029.38888,492.870037 1023.1005,496.931549 C1011.88081,504.175911 1002.50407,513.054709 1002.16297,527.953885 C1002.07585,531.796654 1001.48812,535.695951 1000.58259,539.43795 C999.172767,545.264162 1000.0697,546.232535 1006.08201,547.159125 C1015.07469,548.545323 1024.06124,550.227687 1032.86129,552.510982 C1037.64168,553.75217 1040.62574,552.734642 1041.91778,548.257761 C1043.20367,543.800543 1043.76686,539.135641 1045,532.728159 M1009,466.104499 C1006.75014,464.534763 1004.10142,461.490464 1000.88098,460.651212 C989.24886,457.618037 977.525364,454.081805 965.643809,453.115243 C954.245073,452.188234 943.513147,456.95677 934.111135,463.711579 C930.464676,466.330689 927.959202,469.853325 932.283584,473.902502 C939.619722,480.769788 947.702933,486.545674 958.450912,485.359102 C970.260846,484.056345 980.891516,486.36398 990.903535,495 C996.866539,485.477759 1002.60604,476.315199 1009,466.104499 M1005.73864,559 C999.765235,560.167178 993.360418,560.686468 987.509923,562.757505 C981.020298,565.053894 975.024769,568.745262 968.835044,571.870801 C964.812214,573.903871 965.589002,577.069826 967.962386,579.378462 C977.104399,588.272529 981.307906,599.630776 985.159892,611.325825 C987.192816,617.496069 990.201642,618.549346 995.968558,614.898394 C1011.36175,605.149457 1024.61755,593.193538 1033.08602,576.713426 C1036.80157,569.481332 1035.23448,564.992657 1027.26871,562.790573 C1020.44231,560.904472 1013.26562,560.272506 1005.73864,559 M1707.9995,511.778214 C1707.93529,495.397318 1700.96418,483.686866 1688.71843,479.381913 C1676.44428,475.067149 1664.46893,481.159086 1662.28105,493.437399 C1659.70299,507.90253 1661.15994,522.316149 1665.36162,536.310311 C1667.94461,544.914084 1673.83907,547.531397 1682.67334,545.176551 C1699.97765,540.563751 1708.07358,529.88845 1707.9995,511.778214 M1067.81003,499 C1069.90196,496.047562 1071.51257,494.220333 1072.61716,492.125373 C1075.6804,486.317966 1078.55604,480.410623 1081.46254,474.521787 C1090.80406,455.590652 1104.51581,441.252885 1124.36145,433.15558 C1127.93317,431.698485 1131.38147,429.660279 1134.45088,427.318563 C1138.54836,424.192162 1140.18489,419.977567 1138.08308,414.795687 C1133.60547,403.758283 1121.97207,398.986018 1111.19644,403.975428 C1108.60589,405.174663 1106.16468,406.75637 1103.80246,408.376325 C1078.46225,425.763999 1066.26853,450.628386 1063.24356,480.503157 C1062.63634,486.504267 1062.83134,492.717588 1067.81003,499 M772,544.655266 C771.110392,544.436844 770.222011,544.218422 769.332403,544 C764.465941,551.946634 759.572484,559.876089 754.739152,567.84113 C742.546002,587.932273 726.534286,603.862354 704.544405,612.930549 C690.046863,618.907704 675.240106,624.128971 660.700845,630.010413 C655.290802,632.198314 649.733513,634.636542 645.181175,638.16688 C640.057033,642.13897 641.340523,649.232777 647.470841,651.33969 C651.715192,652.797473 656.94854,653.587719 661.160987,652.477202 C671.350372,649.789875 681.495584,646.489004 691.135253,642.243272 C729.774913,625.222308 756.395663,596.802906 770.137345,556.712651 C771.435559,552.925852 771.411018,548.685029 772,544.655266 M770,518.651022 C769.467897,518.434425 768.93702,518.216597 768.403691,518 C766.091373,521.278491 763.772924,524.554522 761.461832,527.835474 C745.562498,550.412023 727.364332,570.666307 700.589991,580.03782 C683.725761,585.940089 666.060924,589.506556 648.846045,594.437831 C641.242122,596.616108 633.634521,599.079899 626.451132,602.349776 C620.756159,604.940325 620.753707,608.239738 625.146621,612.873192 C630.821977,618.860377 638.109581,619.753839 645.530823,618.519482 C674.979165,613.622667 702.004845,602.678363 725.636837,584.185161 C745.319741,568.782159 756.668001,547.052307 768.227141,525.600587 C769.326902,523.560144 769.432342,520.980671 770,518.651022 M757,884.894351 C755.763634,881.825119 753.950541,875.93056 751.133967,870.580761 C740.404161,850.198041 722.624386,837.173306 703.971595,825.224474 C702.159721,824.064381 699.433375,824.373904 697.132564,824 C696.754582,826.463804 695.63161,829.093513 696.121767,831.362937 C698.642052,843.020818 702.5438,854.449652 704.150832,866.214008 C706.896687,886.313205 719.0677,896.84566 736.656045,902.841743 C748.328366,906.819734 756.900018,900.481938 757,884.894351 M1142.02001,445 C1137.38593,446.317174 1132.64602,447.339033 1128.13357,448.998475 C1098.91815,459.747155 1082.80223,482.802636 1072.37614,510.988422 C1071.2012,514.165207 1071.06619,517.839949 1071,521.295985 C1070.97011,522.850398 1072.29465,524.430759 1073.00375,526 C1074.37452,525.289517 1076.04328,524.874348 1077.06132,523.814184 C1080.4487,520.28401 1083.69742,516.604326 1086.83182,512.838149 C1100.82651,496.017619 1118.30712,485.412271 1139.80879,481.826494 C1147.58457,480.530326 1155.37859,479.269991 1163.07652,477.577188 C1166.52959,476.818516 1169.4487,474.889709 1168.94272,470.309256 C1167.37248,456.123074 1156.20445,445.799448 1142.02001,445 M1024,634.386074 C1024.18785,635.107358 1024.37569,635.828641 1024.56354,636.549925 C1031.21309,637.240332 1037.85527,637.998668 1044.51095,638.61003 C1066.48293,640.631847 1087.30573,645.414057 1103.35991,662.349401 C1109.84248,669.18801 1116.56815,675.79319 1123.19682,682.492236 C1125.5001,684.820351 1127.66587,687.330023 1130.1926,689.382718 C1136.59782,694.581147 1141.62672,694.156281 1147.43402,688.239038 C1155.94239,679.571284 1154.6643,665.836017 1143.81827,655.460155 C1132.15824,644.304959 1118.7155,635.734776 1103.54531,630.206581 C1080.28909,621.732733 1056.80696,625.139069 1033.42674,629.627331 C1030.10442,630.26463 1027.13324,632.753305 1024,634.386074 M819.955729,616 C819.133652,616.246738 818.311574,616.493477 817.48826,616.741437 C817.259562,618.450283 816.902298,620.154244 816.82689,621.870419 C816.370729,632.215108 816.179117,642.576898 815.522691,652.909373 C814.251871,672.929382 809.504836,691.776773 796.198305,707.739036 C787.054082,718.709121 778.066858,729.818455 769.316985,741.097575 C765.994061,745.381295 762.695861,750.0168 760.863802,755.021192 C757.802954,763.387089 763.180454,769.642273 772.197347,768.947252 C780.627042,768.299869 786.838982,763.310135 791.567473,757.087931 C799.944012,746.066544 808.099269,734.815518 815.384236,723.075902 C819.72085,716.087832 823.241567,708.250835 825.353009,700.33322 C832.033471,675.296605 831.113733,650.042566 825.128019,624.974192 C824.361571,621.759264 821.725978,618.980404 819.955729,616 M991,377.805842 C991.752157,385.540044 991.737552,391.090556 992.902301,396.381802 C998.297631,420.913608 1009.94025,441.158373 1032.71188,453.822306 C1039.19041,457.425271 1041.52234,456.937167 1041.85217,449.473187 C1042.98163,423.859275 1052.96536,402.130721 1069.72582,383.088567 C1077.02223,374.798097 1076.71918,372.321059 1068.99678,364.326373 C1054.06317,348.865274 1034.9793,342.981243 1014.33757,341.143244 C1004.24795,340.24372 998.984066,343.497343 996.016817,353.271602 C993.400088,361.898024 992.338792,370.995509 991,377.805842 M878.919922,956.9922 C886.83176,957.135633 894.418336,955.351911 898.898356,947.389519 C903.35751,939.459001 899.947785,932.435669 895.835986,925.610937 C895.310658,924.738077 894.722732,923.889736 894.067299,923.111273 C876.468799,902.208002 856.011678,884.92857 830.266906,874.944625 C814.877731,868.978041 799.127699,863.928451 783.456221,858.71336 C778.444736,857.044874 773.214773,855.866759 767.992174,855.082166 C765.847902,854.760973 762.474999,855.388647 761.459937,856.838918 C760.482924,858.236474 761.209547,861.597965 762.268795,863.493247 C765.446541,869.180319 769.201166,874.543747 772.642803,880.087386 C783.559323,897.664719 796.02237,913.823654 811.502373,927.85806 C830.696497,945.261311 852.349108,955.930548 878.919922,956.9922 M877,721.445111 C875.808348,701.223498 872.804748,681.055787 863.26419,662.610472 C857.490671,651.4492 850.713914,640.784066 843.90657,630.207135 C842.710024,628.348761 839.127727,628.030252 836.647769,627 C835.901457,629.594619 835.076843,632.170862 834.457771,634.797332 C834.288934,635.516426 834.769754,636.378849 834.900665,637.183696 C838.100018,656.787892 839.970692,676.605244 837.055182,696.255991 C833.548739,719.89667 822.267194,740.483342 808.494679,759.74698 C804.355707,765.535258 800.143326,771.310062 796.525549,777.4242 C793.736055,782.13935 794.707484,786.82755 799.973265,789.228613 C808.262222,793.007839 816.606234,796.832391 825.257335,799.602189 C837.789259,803.615396 847.822873,798.729966 854.819853,788.241237 C858.964943,782.025422 862.171638,775.096638 865.161779,768.21073 C871.594744,753.392736 876.894782,738.212132 877,721.445111 M885.614537,523 C883.588567,523.975942 883.137121,524.06924 882.87511,524.341767 C881.319038,525.960973 879.911807,527.734855 878.262247,529.249714 C867.212285,539.39706 857.588006,551.434911 841.363026,554.269441 C830.810024,556.114525 829.849318,559.054628 835.141196,568.423675 C856.329617,605.941603 890.22125,624.521337 931.407358,630.516939 C943.152325,632.228214 955.712845,628.967707 967.81331,627.344819 C972.646361,626.697873 976.094323,623.352662 974.679711,617.68483 C969.421046,596.604473 957.249236,580.819986 936.294534,574.289151 C915.218051,567.72026 900.429825,555.560877 892.391141,535.019437 C890.744041,530.809995 887.93819,527.053537 885.614537,523 M922.03433,130.769587 C923.261313,157.060377 929.256908,182.168679 940.341303,206.106711 C952.421706,232.198384 972.429835,251.429678 994.428755,268.849372 C1005.71846,277.790098 1017.45179,286.247078 1029.55786,294.028527 C1032.5581,295.957398 1037.79233,294.409659 1042,294.459744 C1040.6557,290.698507 1040.17052,286.247078 1037.80699,283.304298 C1030.296,273.954344 1021.93443,265.297025 1014.17536,256.14008 C993.039234,231.194247 979.010813,203.166374 975.907915,170.051853 C974.39374,153.889161 972.066873,137.72647 968.849098,121.819089 C965.872077,107.10641 956.317743,101.634964 940.043112,103.282872 C928.147246,104.487348 922.955789,110.991026 922.047773,125.884498 C921.948783,127.507975 922.03433,129.141224 922.03433,130.769587 M780,468.229992 C779.177417,467.820806 778.356056,467.410403 777.534695,467 C774.790715,468.929017 772.013733,470.815411 769.307643,472.794358 C755.536405,482.862024 742.114734,493.444826 727.926704,502.888972 C715.392397,511.232214 701.854611,517.859557 686.521321,519.877474 C662.223954,523.075453 637.893585,524.138604 613.450768,521.785788 C603.552882,520.83224 598.564827,524.592849 596.801101,534.451051 C594.561915,546.968959 597.034553,558.674585 603.996564,569.31706 C608.048366,575.514514 613.625552,579.965623 621.214583,580.736499 C628.472381,581.474494 635.893963,582.469448 643.083314,581.752156 C706.424653,575.431703 749.253973,540.598575 776.593553,484.973713 C779.025856,480.025736 778.924409,473.84046 780,468.229992 M538,677.19208 C536.414385,659.598775 536.347508,644.689716 533.489997,630.348738 C528.785439,606.742625 522.526882,583.436537 516.38749,560.147665 C514.1562,551.683008 508.936074,550.673495 503.35724,557.456041 C499.826086,561.747391 496.929665,566.962181 495.123961,572.242139 C489.646052,588.25908 485.134832,604.614165 479.692186,620.644631 C472.676085,641.30705 463.933318,661.445654 458.112507,682.427773 C451.445387,706.463021 454.933982,729.236686 473.997836,747.40422 C480.302599,753.41211 487.433001,758.265393 496.528397,757.98873 C515.184903,757.419419 527.574341,748.280935 531.236819,729.734679 C534.825123,711.575753 536.061756,692.942195 538,677.19208 M953.342326,362.304246 C953.342326,361.278728 953.328875,360.25321 953.344772,359.227692 C953.508628,348.856787 950.493188,345.205303 940.076102,346.140949 C931.677868,346.894391 923.092546,348.613026 915.21156,351.57878 C875.991273,366.334913 850.592364,396.008455 831.577727,432.129341 C828.270037,438.414178 825.607987,445.171763 823.603808,451.995828 C820.173837,463.665558 821.800169,466.493427 832.851892,471.520065 C857.419292,482.693656 889.141331,476.39897 909.526733,456.112673 C922.213348,443.485137 936.945718,435.074165 954.806025,432.587315 C959.231361,431.970527 963.677485,431.223241 967.974426,430.025367 C974.860048,428.107291 975.56683,426.027939 971.504667,420.064423 C959.641001,402.64539 953.826558,383.335367 953.342326,362.304246 M1212.03104,410.576951 C1211.45654,426.75995 1218.94332,440.091304 1227.31751,452.957382 C1230.26577,457.485243 1233.14069,456.821614 1235.14653,451.883577 C1235.90927,450.006559 1236.2833,447.974042 1236.92014,446.041926 C1242.58808,428.841444 1248.10568,411.589536 1253.99487,394.466191 C1263.05112,368.129177 1277.51496,345.417634 1298.83485,327.143346 C1311.97491,315.881242 1324.8815,304.287323 1337.19159,292.131401 C1344.81038,284.608639 1351.74588,276.185937 1357.81353,267.357955 C1363.01699,259.788666 1361.62231,252.205907 1355.26986,246.310383 C1347.29415,238.907613 1337.92621,234.117729 1326.78589,234.002635 C1309.71482,233.827544 1296.56865,242.399624 1284.77438,253.612752 C1256.52754,280.464018 1237.47141,312.923072 1225.80915,350.026306 C1219.57404,369.864163 1212.92456,389.542847 1212.03104,410.576951 M1015.61278,646 C1010.11616,646.94813 999.452014,648.357981 988.998283,650.719665 C979.707981,652.817156 970.601185,655.804755 961.528644,658.760255 C958.81887,659.642955 956.49813,661.739212 954,663.279923 C955.79102,665.630497 957.226037,668.419333 959.437897,670.256336 C967.762957,677.173491 976.421999,683.683245 984.811897,690.525092 C1002.52635,704.966797 1014.3001,723.14547 1018.72872,745.916648 C1019.50923,749.933857 1020.64819,753.886869 1021.77737,757.823833 C1028.32853,780.68143 1038.6954,785.503562 1059.16857,773.976617 C1080.11518,762.184245 1097.93851,746.317875 1114.18492,728.507098 C1122.54423,719.344306 1122.79992,710.008678 1117.20298,699.766895 C1109.4003,685.490619 1098.35079,674.117992 1085.68031,664.215708 C1066.52227,649.244384 1043.81767,647.393801 1015.61278,646 M1393.39012,183 C1392.15131,183.093331 1389.44948,183.01228 1386.87875,183.553847 C1381.60619,184.663996 1376.52477,186.218696 1374.60101,192.247149 C1372.66255,198.32104 1375.68175,202.91637 1379.81844,206.248045 C1385.65588,210.948986 1392.12191,214.913102 1398.5328,218.840378 C1410.17091,225.969156 1422.44375,232.152343 1433.61992,239.930754 C1495.1299,282.734125 1555.79441,326.674661 1612.78785,375.504029 C1620.77328,382.345446 1629.9681,387.85321 1638.96687,393.384306 C1643.77259,396.338973 1649.50588,397.50684 1654.33487,393.014666 C1659.00213,388.672313 1658.45931,383.085954 1656.81738,377.585558 C1652.68559,363.750448 1645.26503,351.583018 1634.80445,342.022718 C1615.22257,324.126476 1595.1187,306.75952 1574.61659,289.927989 C1529.06399,252.529227 1480.75196,219.197738 1428.03367,192.591001 C1417.57431,187.311652 1406.70447,183.341395 1393.39012,183 M807.989335,623.504022 C807.89974,621.751617 807.552407,618.910966 807.639547,616.084939 C808.317031,594.107977 800.033806,574.450088 791.414292,554.938435 C790.341609,552.509685 787.254883,550.957137 785.102152,549 C783.418261,551.087531 781.245893,552.947176 780.133935,555.30159 C774.421958,567.395378 769.346963,579.793826 763.358838,591.745033 C755.875829,606.678253 747.771792,621.478642 732.943235,630.647693 C718.954168,639.298821 704.472944,647.160271 690.261732,655.460431 C685.536525,658.220652 680.484849,660.709116 676.442036,664.280951 C665.234091,674.183624 664.219093,685.493826 672.255626,697.930052 C680.961052,711.402122 693.516601,720.841711 706.066014,730.233773 C722.752744,742.723619 734.914321,743.336596 752.039206,731.479224 C789.362202,705.637953 808.518313,670.10849 807.989335,623.504022 M1189,557.020829 C1186.99456,542.08572 1185.74867,526.998363 1182.78523,512.257249 C1179.36484,495.236088 1171.46069,490.355534 1154.26195,492.458776 C1122.31217,496.366903 1095.7735,509.887572 1077.67802,537.272696 C1072.71281,544.78568 1069.44433,553.474907 1065.78383,561.794563 C1059.73199,575.542377 1053.99744,589.431389 1048.12201,603.257783 C1046.42652,607.246945 1044.70775,611.225057 1043,615.209308 C1047.63688,615.7299 1052.27132,616.648304 1056.9131,616.699872 C1071.33216,616.857032 1085.91783,615.306305 1100.1323,617.003141 C1116.69033,618.979919 1130.25306,628.896959 1143.13956,639.068156 C1147.69069,642.660734 1152.3043,643.884863 1157.92001,642.352553 C1165.47746,640.289829 1170.67542,635.95074 1174.19627,628.791367 C1185.3395,606.132092 1187.03009,581.774752 1189,557.020829 M920.354102,878.639606 C909.477161,878.639606 900.913941,878.551798 892.355619,878.685948 C889.323296,878.733511 886.042463,878.70912 883.339449,879.826226 C880.174914,881.134802 876.308917,883.123886 875.095743,885.853236 C874.389385,887.443527 877.742445,891.747314 880.192052,893.64981 C892.156075,902.941552 902.864078,913.29552 911.942682,925.501982 C921.508514,938.362123 932.974292,949.464894 948.390535,955.171162 C982.349606,967.738611 1017.0334,972.81925 1052.54352,962.377475 C1063.79139,959.070059 1075.25595,955.387022 1085.40327,949.713682 C1105.12989,938.682864 1106.12761,919.216428 1088.48946,905.151374 C1083.43844,901.121985 1077.89408,897.454802 1072.06815,894.683988 C1040.33956,879.593293 1006.4772,874.379722 971.696692,875.057791 C953.801461,875.406582 935.940508,877.500547 920.354102,878.639606 M542,769.023212 C543.581211,774.83922 545.157539,783.60474 548.324845,791.752522 C560.720565,823.652667 583.863637,845.937597 612.893212,862.996178 C629.518519,872.763995 646.624905,880.888582 666.053657,882.832134 C681.476267,884.374036 691.168665,875.186111 689.886602,859.707277 C688.215036,839.523385 682.5532,820.589618 669.098863,804.849528 C661.18548,795.592015 653.394199,786.083013 644.457608,777.874189 C614.999458,750.813394 591.586542,719.009694 570.073521,685.609157 C567.990474,682.373972 565.968477,678.862881 563.10276,676.443206 C560.716902,674.426404 556.959846,672.64278 554.152738,673.061523 C552.581295,673.295921 550.901182,678.153582 550.664305,681.043273 C549.615455,693.786239 549.493354,706.611001 548.240595,719.32955 C546.710667,734.864542 544.389522,750.32018 542,769.023212 M919.797204,815 C945.664824,813.143484 968.167681,809.808381 989.965282,802.916079 C1007.39079,797.406656 1012.24004,789.670149 1011.99098,771.567581 C1011.22284,715.706443 969.604086,679.026442 927.98163,662.813521 C910.522836,656.013248 891.797786,652.424147 873.631269,647.438671 C868.70064,646.086469 866.926402,647.854638 868.631593,652.822936 C870.483508,658.219472 872.727506,663.504347 875.139186,668.682469 C891.196099,703.179559 889.659823,737.995681 877.010828,772.944324 C870.318291,791.437091 879.516215,808.821838 899.034062,812.823225 C906.795581,814.4147 914.864108,814.515318 919.797204,815 M935.254913,11 C921.070828,12.4324512 894.051252,14.3518129 867.270095,18.0306918 C801.838191,27.0213211 739.630444,46.9453033 680.401097,76.24723 C654.558943,89.0310885 629.825742,103.567087 609.208017,124.211598 C602.130035,131.297621 597.107345,139.636577 595.258683,149.6207 C593.940655,156.738692 597.745574,160.399127 604.703736,158.504357 C608.39128,157.499797 611.944332,155.775937 615.344551,153.970925 C629.73282,146.332825 643.90957,138.280359 658.402988,130.853745 C703.506937,107.746402 748.299107,84.0304198 797.269109,69.6038533 C831.114799,59.6344848 864.993501,50.2799022 900.2587,47.1604784 C940.053856,43.6414438 979.520117,47.1567897 1018.97782,52.3246802 C1034.85284,54.4038861 1050.95162,55.0444931 1066.97214,55.5609133 C1074.14549,55.7920728 1076.89281,50.2442446 1073.65153,43.6980041 C1072.50345,41.377802 1070.88832,38.8215221 1068.7829,37.5403083 C1062.57423,33.761834 1056.32765,29.6513753 1049.53822,27.2992044 C1016.72079,15.9318127 982.782175,11.1217276 935.254913,11 M1237.14699,654 C1240.92565,651.530387 1243.19187,650.223161 1245.27026,648.661855 C1258.17886,638.960154 1270.89472,628.994553 1283.95555,619.503973 C1317.07473,595.437519 1354.05729,582.508873 1395.08245,580.640707 C1425.36089,579.261062 1454.95921,583.504329 1484.6005,588.788466 C1498.99454,591.355047 1513.72986,593.619678 1528.26017,593.350868 C1543.45095,593.068556 1551.41831,581.668076 1549.79169,566.51776 C1548.20681,551.762681 1541.08652,539.79635 1530.11759,530.194072 C1514.1755,516.239285 1495.46631,508.00315 1474.54738,504.895267 C1443.42925,500.273948 1412.9372,504.592089 1382.94604,512.572916 C1354.3286,520.187965 1327.04437,531.136747 1304.39202,551.009032 C1285.27158,567.782025 1268.23075,586.566796 1253.50034,607.311792 C1245.25553,618.922165 1240.16206,632.080342 1237.20591,646.006898 C1236.77992,648.007629 1237.14699,650.176518 1237.14699,654 M812,388.054434 C808.365078,388.054434 805.925065,387.631391 803.695631,388.137575 C797.946357,389.444608 792.258299,391.056085 786.598399,392.733587 C747.493303,404.325708 709.250109,403.265654 671.485612,386.599458 C657.79436,380.558252 643.329355,375.817966 628.777426,372.285676 C611.227207,368.025899 601.409613,374.349541 595.160829,391.284724 C594.597655,392.810615 593.97449,394.327947 593.571698,395.899076 C587.90935,418.092957 585.293039,440.709881 585.004106,463.550554 C584.809444,478.936616 591.532029,490.339224 605.983566,497.092023 C627.60333,507.194934 650.097239,511.161271 673.753,507.863734 C706.635022,503.277504 734.989614,489.401437 759.366483,466.817525 C772.462729,454.684984 784.749719,442.373933 792.023235,425.537786 C796.823682,414.428619 803.500968,404.127636 809.32125,393.456184 C810.069292,392.083127 810.715718,390.653827 812,388.054434 M1249.0819,595 C1251.30324,592.581793 1252.56159,591.342661 1253.67226,589.983416 C1264.35789,576.911862 1274.4235,563.270382 1285.7975,550.836166 C1319.22747,514.289744 1359.78893,489.600258 1409.01728,481.957107 C1430.98659,478.544898 1453.5027,478.647852 1475.7747,477.233453 C1490.40382,476.303185 1505.03416,475.952649 1516.90492,465.095844 C1526.39444,456.415793 1530.16828,446.298055 1526.77524,433.787849 C1523.12589,420.328991 1516.39474,408.601975 1506.55859,398.719561 C1497.96371,390.086085 1487.83463,385.035183 1475.40732,386.154201 C1461.25909,387.430102 1447.05226,388.440038 1433.01753,390.543253 C1382.05483,398.181501 1339.57594,422.769259 1303.99786,459.152669 C1284.51962,479.071927 1271.99223,504.265156 1259.52587,529.031859 C1253.88952,540.229394 1249.00501,552.006661 1245.51066,564.029059 C1242.68028,573.771748 1243.80316,584.091718 1249.0819,595 M1051.75394,88 C1048.49996,88.3183389 1043.61775,88.6047209 1038.79304,89.2991667 C1015.28237,92.6890454 998.224628,107.008149 993.138132,127.832918 C988.205772,148.028385 987.20878,168.518838 992.754014,188.591393 C1010.57999,253.115854 1050.70557,298.537525 1111.2909,325.96506 C1112.94603,326.713587 1114.73817,327.244561 1116.52175,327.601002 C1124.41572,329.179177 1127.61466,326.07568 1125.22433,318.290513 C1122.593,309.726091 1118.85092,301.514423 1115.97126,293.018832 C1106.68394,265.606045 1101.32954,237.745864 1106.64235,208.654116 C1110.68047,186.542471 1114.40421,164.373058 1118.3249,142.239288 C1122.11958,120.823318 1113.76075,104.976434 1093.84415,96.2165842 C1080.96154,90.54794 1067.31803,88.6022627 1051.75394,88 M1238,500.449469 C1238.70219,505.064887 1239.88684,513.924873 1241.51834,522.702857 C1241.87435,524.619522 1243.82625,526.242445 1245.04282,528 C1246.75656,526.473767 1248.93435,525.23026 1250.08094,523.357656 C1252.08686,520.078763 1253.44828,516.409439 1255.09819,512.911464 C1267.14721,487.352257 1280.93576,462.792997 1301.13982,442.690043 C1327.9828,415.980348 1360.51086,398.287302 1396.47133,387.159384 C1417.88213,380.533059 1439.8208,375.598197 1461.54587,369.986505 C1473.23274,366.968308 1478.83557,359.783874 1476.46505,345.331778 C1472.79694,322.957222 1459.18394,306.178447 1441.68432,293.164462 C1417.32234,275.047938 1390.61684,272.242704 1364.82101,289.769297 C1353.70375,297.322132 1343.16592,305.785567 1332.79505,314.350588 C1299.30576,342.0076 1271.20079,373.523646 1256.58852,415.618067 C1247.4649,441.898165 1238.70956,468.017928 1238,500.449469 M739.436558,389.940822 C748.770619,389.239187 758.184186,389.079724 767.422839,387.724291 C789.161134,384.533811 810.178978,378.917045 827.77682,364.800919 C841.916742,353.458216 855.793681,341.775735 869.597229,330.02211 C871.894355,328.065625 873.223948,324.965916 875,322.394888 C872.207488,320.98303 869.460233,319.465681 866.598,318.213286 C865.530167,317.745937 864.185895,317.933613 862.97862,317.756977 C852.307627,316.190563 841.527772,315.146696 830.992551,312.933844 C798.418135,306.091669 768.807475,292.927412 746.12978,267.770336 C734.290654,254.635518 724.222687,239.883994 713.50399,225.748242 C701.606151,210.057115 683.829725,208.693095 669.81946,222.533229 C649.568548,242.535981 636.149077,266.908011 625.065874,292.781443 C617.798981,309.745818 620.220871,325.276255 632.752316,338.717732 C661.608275,369.66821 695.030354,391.282762 739.436558,389.940822 M1175.72045,124.009514 C1173.49125,124.009514 1171.26204,124.035224 1169.03284,124.004617 C1153.97934,123.803834 1142.93427,130.146853 1136.51543,144.111045 C1135.49751,146.325776 1134.19259,148.414406 1133.27561,150.667089 C1119.2911,185.021743 1115.80927,220.855333 1119.21084,257.471241 C1121.71003,284.371225 1131.7992,309.219308 1141.7619,333.929047 C1144.72444,341.278428 1149.80065,347.949556 1154.7516,354.259519 C1165.16549,367.528317 1176.13151,380.356373 1186.88227,393.354604 C1189.21363,396.172907 1191.38689,399.173629 1194.03566,401.655254 C1195.6799,403.19418 1198.08058,403.912835 1200.14317,405 C1201.20487,402.915043 1202.86126,400.930478 1203.22489,398.729214 C1204.78156,389.281408 1205.8992,379.76137 1207.28561,370.284182 C1212.53573,334.367341 1223.56986,300.768071 1243.85402,270.220942 C1253.45309,255.765812 1261.48332,240.010492 1268.36065,224.031128 C1277.05977,203.819411 1273.13161,183.955391 1259.87071,167.006394 C1238.60147,139.819927 1210.62273,124.741636 1175.72045,124.009514 M882.122832,312 C890.214771,311.237988 898.394985,310.988893 906.383935,309.61948 C933.886719,304.907523 960.797319,296.672641 989.066385,296.384279 C993.395572,296.338878 997.689204,293.078547 1002,291.3042 C999.324756,287.231548 997.341005,282.387067 993.83695,279.234718 C985.044936,271.327465 975.356679,264.427638 966.4016,256.688494 C939.677359,233.593768 920.899157,205.627565 914.27235,170.309973 C911.713581,156.672293 908.849525,143.091058 906.128917,129.482827 C903.887695,118.273522 897.300121,110.897591 885.994702,109.248406 C878.000847,108.081461 869.60117,107.47406 861.658809,108.589469 C826.733511,113.494076 793.106602,123.314335 760.947275,137.836734 C746.760635,144.243278 733.29614,151.827812 723.122366,164.240874 C711.792426,178.065069 709.736338,192.696678 718.156858,208.583582 C720.162678,212.366646 722.319302,216.084674 724.627957,219.689813 C743.239416,248.756699 764.871866,274.829529 796.334795,290.905402 C823.231909,304.646156 852.236605,309.657519 882.122832,312 M366.309546,666 C389.110467,664.758758 411.438249,656.566563 427.863985,637.954052 C451.902629,610.717663 470.194095,579.816247 478.163077,543.712623 C482.012821,526.269202 484.190724,508.325616 489.574512,491.390922 C494.737583,475.152056 497.698362,458.761551 500.149418,442.057984 C506.936772,395.801859 511.637678,349.133616 526.72204,304.467258 C529.585264,295.991351 527.551253,290.052957 521.483364,285.470757 C515.348407,280.838419 508.511057,280.71246 501.17496,285.882874 C495.375346,289.9698 489.85864,294.515312 484.544359,299.229585 C465.852921,315.815754 447.556577,332.750449 426.789667,346.942183 C388.682447,372.985023 347.170576,392.323936 305.49652,411.516101 C278.966578,423.734077 252.219578,435.568063 227.827299,451.967129 C208.404201,465.025236 192.196744,480.801846 182.735178,502.771213 C178.7013,512.139836 178.119632,521.677219 180.104865,531.449399 C183.298555,547.17587 192.024804,559.978392 202.865546,571.163019 C236.587692,605.954474 275.427789,633.717932 319.32121,654.181911 C333.540995,660.811243 348.392445,665.641691 366.309546,666 M1158.89908,920 C1192.51162,918.216829 1226.35581,909.566915 1257.59066,892.513423 C1286.58263,876.685479 1315.30252,860.268046 1343.37037,842.861597 C1383.60248,817.911904 1423.33085,792.117808 1459.3787,761.155579 C1485.53827,738.685168 1503.94949,710.363994 1520.24652,680.503532 C1529.92522,662.771087 1527.17248,646.378165 1513.64657,631.551493 C1502.11965,618.912423 1488.03363,610.117895 1472.23665,603.982805 C1451.08495,595.766735 1428.87309,594.628202 1406.55338,595.086556 C1372.73248,595.780216 1339.96683,601.525582 1309.68551,617.498141 C1284.81039,630.621303 1262.9797,648.089029 1241.29976,665.810444 C1227.49073,677.098961 1216.26408,690.265017 1207.75952,705.914031 C1171.48861,772.667146 1115.62867,817.544239 1047.74051,848.974627 C1040.35127,852.396356 1033.04169,856.030104 1025.93311,859.993524 C1023.86304,861.146764 1022.62272,863.786593 1021,865.745018 C1023.13993,867.02694 1025.1242,868.91796 1027.43817,869.496418 C1056.84685,876.850928 1085.43436,885.619719 1109.97857,904.805664 C1123.41501,915.307379 1139.65444,919.975489 1158.89908,920 M965.941396,1020 C902.911265,1015.9034 847.537043,1012.73511 794.002052,995.928624 C751.487745,982.580676 711.018527,964.354769 670.489267,946.125187 C597.402792,913.25438 529.949194,870.781965 464.831088,824.645264 C386.925362,769.449496 310.23762,712.539155 232.623524,656.92699 C185.868325,623.42424 138.735722,590.413818 91.0149565,558.308445 C68.4283122,543.113657 42.7562683,533.760663 16.0990532,527.682503 C13.14599,527.008921 9.77998817,527.667806 7.06096448,526.575379 C4.37379956,525.493973 0.876686614,523.366678 0.210103068,521.001793 C-0.934362065,516.94193 2.80291701,515.088966 6.42501437,514.265972 C15.7437053,512.149699 25.2768303,510.749873 34.3700591,507.924502 C60.0923419,499.929695 83.1090796,486.282921 105.9702,472.42305 C159.620372,439.893933 209.668053,402.205176 260.003688,364.927917 C321.982479,319.026357 383.420897,272.37161 446.096905,227.438784 C486.042904,198.801746 527.650461,172.478157 565.483978,140.925121 C587.09893,122.900064 608.119593,104.167132 632.310204,89.4181334 C690.701207,53.8162566 753.836717,30.2702751 820.234075,14.9922079 C868.174175,3.96015748 916.747775,-1.05864166 965.984283,0.185648217 C1008.69954,1.265829 1049.6736,10.0395423 1089.13437,26.3463531 C1125.30755,41.2949773 1162.08728,54.881741 1197.70661,71.0342403 C1237.7776,89.2038118 1276.71392,109.859514 1316.4075,128.882697 C1341.0135,140.675283 1365.78737,152.240076 1391.06118,162.491996 C1433.41007,179.669565 1473.66485,200.359558 1510.523,227.536759 C1552.54227,258.519088 1596.98281,286.39314 1634.94498,322.576747 C1651.75171,338.596979 1666.99613,356.24728 1683.10442,373.008453 C1716.49364,407.748144 1753.77208,437.658865 1794.59174,463.306422 C1820.87646,479.820207 1847.10603,496.41727 1876.82414,506.076438 C1887.74802,509.628052 1899.41201,510.904184 1910.74515,513.18824 C1912.14081,513.46992 1913.9249,513.095163 1914.9162,513.839778 C1917.14754,515.51761 1918.99535,517.706139 1921,519.686471 C1918.94143,521.654555 1917.05564,525.113093 1914.80102,525.372728 C1855.49224,532.206525 1809.75162,566.400003 1763.52454,599.730071 C1730.18556,623.76838 1699.73225,651.240733 1669.05838,678.457124 C1635.37385,708.347025 1598.7816,733.976212 1560.05849,757.09355 C1518.93126,781.646231 1479.29405,808.69484 1439.03927,834.706132 C1393.48612,864.14167 1348.84586,895.083584 1300.57859,920.091851 C1249.15118,946.73631 1196.96161,971.821733 1141.93538,990.26931 C1103.1363,1003.27679 1062.92685,1010.44861 1022.38901,1015.35351 C1001.1674,1017.92169 979.752174,1018.90022 965.941396,1020" id="Fill-1"></path>
            </g>
        </g>
    </g>
</svg>