<?xml version="1.0" encoding="UTF-8"?>
<svg width="56px" height="45px" viewBox="0 0 56 45" version="1.1" xmlns="http://www.w3.org/2000/svg" xmlns:xlink="http://www.w3.org/1999/xlink">
    <title>Fill 1 Copy</title>
    <g id="Page-1" stroke="none" stroke-width="1" fill="none" fill-rule="evenodd">
        <g id="Index-video" transform="translate(-1005.000000, -2715.000000)" fill="#FFFFFF">
            <path d="M1060.25008,2720.2316 C1058.24918,2721.11883 1056.09698,2721.71881 1053.83938,2721.98906 C1056.14458,2720.60722 1057.91428,2718.42144 1058.74728,2715.81584 C1056.59168,2717.094 1054.20148,2718.02202 1051.65998,2718.52342 C1049.62337,2716.35464 1046.72317,2715 1043.51357,2715 C1037.34937,2715 1032.35307,2719.99534 1032.35307,2726.15836 C1032.35307,2727.03199 1032.45167,2727.88353 1032.64207,2728.70107 C1023.36516,2728.23536 1015.14226,2723.79241 1009.63766,2717.04131 C1008.67715,2718.68999 1008.12635,2720.60722 1008.12635,2722.65193 C1008.12635,2726.52209 1010.09666,2729.93843 1013.09036,2731.93895 C1011.26116,2731.88116 1009.54076,2731.37976 1008.03625,2730.54352 C1008.03455,2730.59111 1008.03455,2730.637 1008.03455,2730.68459 C1008.03455,2736.09125 1011.88166,2740.60049 1016.98846,2741.62539 C1016.05176,2741.88034 1015.06576,2742.01632 1014.04746,2742.01632 C1013.32836,2742.01632 1012.62966,2741.94663 1011.94796,2741.81746 C1013.36746,2746.25021 1017.48996,2749.47619 1022.37406,2749.56627 C1018.55416,2752.5594 1013.74146,2754.34235 1008.51225,2754.34235 C1007.61125,2754.34235 1006.72385,2754.28966 1005.85005,2754.18768 C1010.78856,2757.35248 1016.65526,2759.20002 1022.95886,2759.20002 C1043.48807,2759.20002 1054.71318,2742.19648 1054.71318,2727.45181 C1054.71318,2726.9674 1054.70298,2726.4864 1054.68088,2726.00709 C1056.86198,2724.43489 1058.75408,2722.47007 1060.25008,2720.2316" id="Fill-1-Copy"></path>
        </g>
    </g>
</svg>