<?xml version="1.0" encoding="UTF-8"?>
<svg width="25px" height="21px" viewBox="0 0 25 21" version="1.1" xmlns="http://www.w3.org/2000/svg" xmlns:xlink="http://www.w3.org/1999/xlink">
    <title>11DD9389-38D1-45A1-AF9A-3962BF800394</title>
    <g id="Page-1" stroke="none" stroke-width="1" fill="none" fill-rule="evenodd">
        <g id="Index-video" transform="translate(-1135.000000, -56.000000)" fill="#FFFFFF">
            <path d="M1159.96202,58.5059581 C1159.04856,58.9109978 1158.06604,59.1849039 1157.03539,59.3082781 C1158.08777,58.6774404 1158.89568,57.679584 1159.27596,56.4900709 C1158.29188,57.0735763 1157.2007,57.4972385 1156.04045,57.7261403 C1155.1107,56.7360432 1153.78669,56.1176206 1152.32144,56.1176206 C1149.50735,56.1176206 1147.22643,58.3981027 1147.22643,61.2116543 C1147.22643,61.6104865 1147.27144,61.9992315 1147.35836,62.3724577 C1143.12325,62.1598507 1139.36932,60.1315484 1136.85635,57.0495222 C1136.41786,57.8021822 1136.16641,58.6774404 1136.16641,59.610894 C1136.16641,61.3777051 1137.06589,62.9373407 1138.43258,63.8506198 C1137.59751,63.8242379 1136.81211,63.5953362 1136.12527,63.2135746 C1136.1245,63.2353009 1136.1245,63.2562512 1136.1245,63.2779775 C1136.1245,65.7462367 1137.88078,67.8048005 1140.21215,68.2726912 C1139.78452,68.3890819 1139.33439,68.4511569 1138.86952,68.4511569 C1138.54123,68.4511569 1138.22226,68.4193435 1137.91105,68.3603722 C1138.55908,70.3840188 1140.44109,71.8567493 1142.67079,71.8978741 C1140.92693,73.2643011 1138.72982,74.0782602 1136.34258,74.0782602 C1135.93125,74.0782602 1135.52613,74.0542061 1135.12722,74.0076498 C1137.38176,75.4524466 1140.06004,76.2958913 1142.93777,76.2958913 C1152.3098,76.2958913 1157.4343,68.5334064 1157.4343,61.8021432 C1157.4343,61.5810008 1157.42965,61.3614104 1157.41956,61.1425958 C1158.41528,60.4248531 1159.27906,59.5278686 1159.96202,58.5059581" id="Fill-1-Copy"></path>
        </g>
    </g>
</svg>