<?xml version="1.0" encoding="UTF-8"?>
<svg width="24px" height="94px" viewBox="0 0 24 94" version="1.1" xmlns="http://www.w3.org/2000/svg" xmlns:xlink="http://www.w3.org/1999/xlink">
    <title>19DE8EBE-A93F-4309-B1D3-79D9240B06A1</title>
    <g id="Page-1" stroke="none" stroke-width="1" fill="none" fill-rule="evenodd">
        <g id="Index-video" transform="translate(-314.000000, -746.000000)" fill="#FFFFFF" fill-rule="nonzero">
            <path d="M363.507211,804.46441 C363.754967,804.46441 363.987238,804.402471 364.204024,804.278593 C364.420811,804.154715 364.622112,803.999868 364.807929,803.814051 L364.807929,803.814051 L372.705147,793.965756 C372.952902,793.656061 373.07678,793.315397 373.07678,792.943763 C373.07678,792.57213 372.952902,792.231465 372.705147,791.921771 L372.705147,791.921771 L364.807929,782.073476 C364.498234,781.701842 364.126601,781.500541 363.693028,781.469571 C363.259455,781.438602 362.887822,781.546995 362.578127,781.794751 C362.206493,782.042507 362.005191,782.383171 361.974222,782.816744 C361.943252,783.250316 362.051646,783.65292 362.299401,784.024553 L362.299401,784.024553 L368.184657,791.365828 L280.818701,791.36432 C280.471843,791.36432 280.164626,791.463422 279.89705,791.661627 L279.7038,791.828862 C279.394105,792.138557 279.239258,792.510191 279.239258,792.943763 C279.239258,793.377336 279.394105,793.74897 279.7038,794.058665 C280.013495,794.368359 280.385129,794.523207 280.818701,794.523207 L280.818701,794.523207 L368.184657,794.524417 L362.299401,801.862973 C362.113585,802.141699 362.006159,802.437844 361.977125,802.75141 L361.974222,803.070783 C362.005191,803.504356 362.206493,803.84502 362.578127,804.092776 C362.702005,804.216654 362.856852,804.309562 363.042669,804.371501 C363.228486,804.43344 363.383333,804.46441 363.507211,804.46441 Z" id="" transform="translate(326.158019, 792.964410) rotate(90.000000) translate(-326.158019, -792.964410) "></path>
        </g>
    </g>
</svg>