<?xml version="1.0" encoding="UTF-8"?>
<svg width="29px" height="22px" viewBox="0 0 29 22" version="1.1" xmlns="http://www.w3.org/2000/svg" xmlns:xlink="http://www.w3.org/1999/xlink">
    <title>6B44B0B1-CBF9-49FB-B334-174E18880F68</title>
    <g id="Page-1" stroke="none" stroke-width="1" fill="none" fill-rule="evenodd">
        <g id="Index-video" transform="translate(-1032.000000, -56.000000)" fill="#FFFFFF" fill-rule="nonzero">
            <g id="Discord-Logo-White" transform="translate(1032.473923, 56.117621)">
                <path d="M23.2292594,1.62316486 C21.4446341,0.817430983 19.5308933,0.223801779 17.5299581,-0.116194322 C17.4935187,-0.122756141 17.4571187,-0.106357803 17.4383469,-0.0735603524 C17.1922229,0.357172388 16.9195976,0.919098424 16.7286849,1.36076973 C14.5765498,1.04373805 12.4354569,1.04373805 10.3274513,1.36076973 C10.1364992,0.909280919 9.85397523,0.357172388 9.60674707,-0.0735603524 C9.58797524,-0.10526352 9.55157524,-0.121661857 9.5151358,-0.116194322 C7.51530487,0.222715257 5.60156407,0.816344461 3.81583453,1.62316486 C3.80037538,1.62972279 3.78712467,1.64066562 3.77833031,1.65486802 C0.148367015,6.99101172 -0.846031666,12.1959967 -0.358212917,17.3364499 C-0.356005649,17.3615952 -0.341658213,17.3856539 -0.321792016,17.4009428 C2.07315401,19.1315399 4.39306832,20.1821682 6.66990207,20.8785513 C6.70634151,20.8894942 6.74494996,20.8763783 6.76813869,20.8468482 C7.30672459,20.1231467 7.78682599,19.3600589 8.19846541,18.5575846 C8.22275837,18.5105925 8.19956964,18.4548306 8.14991894,18.4362433 C7.38839783,18.1520013 6.66327672,17.8054395 5.96576124,17.4118856 C5.91058941,17.3801825 5.90617251,17.3025349 5.95692744,17.2653603 C6.10371053,17.157135 6.25053307,17.0445247 6.39069081,16.9308279 C6.41604855,16.9100676 6.45138377,16.9056827 6.48119785,16.9187985 C11.0635752,18.977409 16.0245441,18.977409 20.5528539,16.9187985 C20.5826679,16.9045961 20.6180031,16.908981 20.6444651,16.9297414 C20.7846623,17.0434382 20.9314454,17.157135 21.0793327,17.2653603 C21.1300876,17.3025349 21.126775,17.3801825 21.0716031,17.4118856 C20.3740877,17.813084 19.6489665,18.1520013 18.8863412,18.4351568 C18.8366905,18.4537441 18.814606,18.5105925 18.838899,18.5575846 C19.2593722,19.3589335 19.7394736,20.1220214 20.2681215,20.8457617 C20.290206,20.8763783 20.3299186,20.8894942 20.3663581,20.8785513 C22.6542341,20.1821682 24.9741326,19.1315399 27.369079,17.4009428 C27.3900593,17.3856539 27.40331,17.3626817 27.4055185,17.3375365 C27.9893382,11.3946089 26.4276481,6.23230874 23.2656594,1.65595455 C23.2579298,1.64066562 23.2447186,1.62972279 23.2292594,1.62316486 Z M8.88276962,14.2064509 C7.50315839,14.2064509 6.36639785,12.9601711 6.36639785,11.4296104 C6.36639785,9.89904978 7.48111332,8.65276993 8.88276962,8.65276993 C10.2954287,8.65276993 11.4211865,9.90999261 11.399102,11.4296104 C11.399102,12.9601711 10.2843865,14.2064509 8.88276962,14.2064509 Z M18.1866173,14.2064509 C16.8070455,14.2064509 15.670285,12.9601711 15.670285,11.4296104 C15.670285,9.89904978 16.784961,8.65276993 18.1866173,8.65276993 C19.5993158,8.65276993 20.7250341,9.90999261 20.7029891,11.4296104 C20.7029891,12.9601711 19.5993158,14.2064509 18.1866173,14.2064509 Z" id="Shape"></path>
            </g>
        </g>
    </g>
</svg>