<?xml version="1.0" encoding="utf-8"?>
<!-- Generator: Adobe Illustrator 22.1.0, SVG Export Plug-In . SVG Version: 6.00 Build 0)  -->
<svg version="1.1" id="Layer_1" xmlns="http://www.w3.org/2000/svg" xmlns:xlink="http://www.w3.org/1999/xlink" x="0px" y="0px"
	 width="46px" height="46px" viewBox="0 0 46 46" style="enable-background:new 0 0 46 46;" xml:space="preserve">
<style type="text/css">
	.st0{fill:#FFFFFF;}
</style>
<g id="Page-1">
	<g id="Logomark-Transparent-White">
		<path id="Shape" class="st0" d="M23,0C10.3,0,0,10.3,0,23s10.3,23,23,23s23-10.3,23-23S35.7,0,23,0z M11.4,23.8l0.1-0.1l6-9.4
			c0.1-0.1,0.2-0.1,0.3-0.1c0,0,0.1,0,0.1,0.1c1,2.2,1.9,5,1.5,6.8c-0.3,0.9-0.7,1.8-1.2,2.6c-0.1,0.1-0.1,0.3-0.2,0.4
			c0,0.1-0.1,0.1-0.2,0.1h-6.2C11.4,24.1,11.3,24,11.4,23.8C11.3,23.8,11.3,23.8,11.4,23.8z M38,27c0,0.1,0,0.2-0.1,0.2
			c-1,0.4-1.9,1-2.7,1.8c-1.7,2.3-3,5.7-5.8,5.7h-12c-4.2,0-7.7-3.4-7.7-7.7v-0.1c0-0.1,0.1-0.2,0.2-0.2c0,0,0,0,0,0h6.7
			c0.1,0,0.2,0.1,0.2,0.2c0,0,0,0,0,0c-0.1,0.4,0,0.9,0.2,1.3c0.4,0.8,1.2,1.3,2.1,1.3h3.3v-2.6h-3.3c-0.1,0-0.2-0.1-0.2-0.2
			c0,0,0-0.1,0-0.1c0,0,0.1-0.1,0.1-0.2c0.3-0.4,0.8-1.1,1.2-1.9c0.3-0.5,0.6-1.1,0.8-1.6c0-0.1,0.1-0.2,0.1-0.3s0.1-0.4,0.2-0.5
			s0.1-0.3,0.1-0.4c0.1-0.5,0.2-1,0.1-1.5c0-0.2,0-0.4,0-0.6s0-0.5-0.1-0.7s0-0.4-0.1-0.6s-0.1-0.6-0.2-0.9v-0.1
			c0-0.2-0.1-0.4-0.2-0.6c-0.2-0.6-0.4-1.3-0.6-1.9c-0.1-0.2-0.2-0.5-0.3-0.7c-0.1-0.3-0.3-0.6-0.4-0.9c-0.1-0.1-0.1-0.3-0.2-0.4
			s-0.1-0.3-0.2-0.4s-0.1-0.2-0.1-0.3l-0.4-0.7c0-0.1,0-0.1,0-0.2c0,0,0,0,0,0l2.5,0.7l0,0l0.3,0.1l0.4,0.1h0.1v-1.5
			c0-0.7,0.6-1.3,1.3-1.3c0,0,0,0,0,0c0.3,0,0.7,0.1,0.9,0.4c0.2,0.2,0.4,0.6,0.4,0.9v2.2l0.3,0.1h0.1l0.3,0.2l0.3,0.3
			c0.2,0.2,0.5,0.4,0.9,0.7l0.3,0.2c0.5,0.4,0.9,0.9,1.3,1.3l0.4,0.4c0.1,0.2,0.3,0.3,0.4,0.5c0.2,0.2,0.3,0.4,0.5,0.6
			c0.1,0.1,0.1,0.2,0.2,0.3c0.2,0.3,0.3,0.6,0.5,0.8l0.2,0.4c0.2,0.4,0.3,0.7,0.4,1.1c0,0.1,0,0.2,0,0.3l0,0c0,0.1,0,0.2,0,0.4
			c0,0.4,0,0.8-0.1,1.2c0,0.2-0.1,0.3-0.1,0.5c-0.1,0.2-0.1,0.3-0.2,0.5c-0.1,0.3-0.3,0.7-0.5,1c-0.1,0.1-0.1,0.2-0.2,0.4l-0.2,0.4
			l-0.3,0.4c-0.1,0.1-0.2,0.3-0.3,0.4c-0.1,0.2-0.3,0.4-0.5,0.5c-0.1,0.1-0.2,0.2-0.3,0.3c-0.1,0.1-0.2,0.2-0.3,0.3l-0.4,0.4
			l-0.3,0.2c0,0-0.1,0.1-0.1,0h-2v2.6h2.5c0.6,0,1.1-0.2,1.5-0.6c0.6-0.5,1.1-1,1.6-1.5c0,0,0.1,0,0.1-0.1l7-2c0.1,0,0.2,0,0.3,0.1
			c0,0,0,0,0,0.1C38,25.5,38,27,38,27z"/>
	</g>
</g>
</svg>
