<?xml version="1.0" encoding="UTF-8"?>
<svg width="20px" height="20px" viewBox="0 0 20 20" version="1.1" xmlns="http://www.w3.org/2000/svg" xmlns:xlink="http://www.w3.org/1999/xlink">
    <title>globe-cursor</title>
    <g id="Page-1" stroke="none" stroke-width="1" fill="none" fill-rule="evenodd" stroke-linecap="round" stroke-linejoin="round">
        <g id="Index-video" transform="translate(-1069.000000, -6250.000000)" stroke="#FFFFFF" stroke-width="2">
            <g id="globe-cursor" transform="translate(1070.000000, 6251.000000)">
                <path d="M8.52623005,17.0524601 C3.81690899,17.0524601 0,13.2355511 0,8.52623005 C0,3.81690899 3.81690899,0 8.52623005,0 C13.2355511,0 17.0524601,3.81690899 17.0524601,8.52623005" id="Path"></path>
                <line x1="0.483153036" y1="5.68415337" x2="16.4650976" y2="5.68415337" id="Path"></line>
                <g id="Group" transform="translate(0.483153, 0.000237)">
                    <line x1="0" y1="11.3680699" x2="8.04307702" y2="11.3680699" id="Path"></line>
                    <path d="M11.8325126,8.52599321 C11.8325126,5.90749323 11.1475721,3.28899324 9.77958587,1.00396359 C8.97717289,-0.33465453 7.10898115,-0.33465453 6.30751552,1.00396359 C3.56964832,5.57497026 3.56964832,11.4779635 6.30751552,16.0489702 C6.70824834,16.7178056 7.37613636,17.0531706 8.04402438,17.0531706" id="Path"></path>
                    <path d="M14.8356403,15.3185565 L17.2087743,14.3693029 C17.6265596,14.2025677 17.617086,13.6076263 17.1945639,13.4532068 L11.5426208,11.3983854 C11.1523089,11.2562816 10.7743127,11.6352251 10.9154692,12.025537 L12.9702906,17.6774801 C13.1237628,18.1009496 13.7187042,18.1094758 13.8863867,17.6916905 L14.8356403,15.3185565 L14.8356403,15.3185565 Z" id="Path"></path>
                </g>
            </g>
        </g>
    </g>
</svg>