<?xml version="1.0" encoding="UTF-8"?>
<svg width="110px" height="32px" viewBox="0 0 110 32" version="1.1" xmlns="http://www.w3.org/2000/svg" xmlns:xlink="http://www.w3.org/1999/xlink">
    <title>Group 36</title>
    <defs>
        <polygon id="path-1" points="0 0 45.204686 0 45.204686 31.6586518 0 31.6586518"></polygon>
        <polygon id="path-3" points="0 0 7.84685917 0 7.84685917 13.6309176 0 13.6309176"></polygon>
        <polygon id="path-5" points="0 31.6586808 110 31.6586808 110 0 0 0"></polygon>
    </defs>
    <g id="Page-1" stroke="none" stroke-width="1" fill="none" fill-rule="evenodd">
        <g id="Index-video" transform="translate(-385.000000, -933.000000)">
            <g id="Group-36" transform="translate(385.000000, 933.000000)">
                <g id="Group-3" transform="translate(0.000000, 0.000029)">
                    <mask id="mask-2" fill="white">
                        <use xlink:href="#path-1"></use>
                    </mask>
                    <g id="Clip-2"></g>
                    <path d="M44.207086,4.95754068 C43.6794414,3.00757468 42.1562297,1.48436306 40.2062637,0.956718377 C36.6982964,0 22.5794524,0 22.5794524,0 C22.5794524,0 8.4606085,0.028991466 4.95264112,0.985709843 C3.00267512,1.51335452 1.4794635,3.03656615 0.951818819,4.98653215 C-0.109268835,11.2196973 -0.520947652,20.7173016 0.980810285,26.7011402 C1.50845497,28.6511062 3.03166659,30.1740279 4.98163259,30.7019625 C8.48959997,31.6586808 22.6084439,31.6586808 22.6084439,31.6586808 C22.6084439,31.6586808 36.7272878,31.6586808 40.2352552,30.7019625 C42.1852212,30.1740279 43.7084328,28.6511062 44.2360775,26.7011402 C45.3551481,20.4592775 45.7001465,10.9674716 44.207086,4.95754068" id="Fill-1" fill="#FF0000" mask="url(#mask-2)"></path>
                </g>
                <polygon id="Fill-4" fill="#FFFFFF" points="18.0858912 22.6131985 29.7984434 15.8294854 18.0858912 9.04548234"></polygon>
                <path d="M63.0346949,25.5010384 C63.0346949,26.4650047 62.9575776,27.1784846 62.7839187,27.6026298 C62.6105497,28.0267749 62.3212149,28.2387026 61.916494,28.2387026 C61.4923489,28.2387026 61.2030141,28.0267749 61.0487795,27.6026298 C60.8945449,27.1784846 60.8174276,26.4650047 60.8174276,25.5010384 L60.8174276,21.3946872 C60.8174276,20.4498553 60.8945449,19.774934 61.0682037,19.3316545 C61.2415727,18.888085 61.5114833,18.6761574 61.916494,18.6761574 C62.3212149,18.6761574 62.6105497,18.888085 62.7839187,19.3316545 C62.9575776,19.7557996 63.0346949,20.4498553 63.0346949,21.3946872 L63.0346949,25.5010384 Z M64.3071303,17.2300631 C63.7287506,16.8250523 62.9381533,16.6322591 61.9741871,16.6322591 C60.9910864,16.6322591 60.2004892,16.8447665 59.5835508,17.2300631 C58.9666124,17.6156496 58.5230429,18.2328779 58.233998,19.1003026 C57.9446632,19.9485929 57.8098529,21.1053524 57.8098529,22.5125981 L57.8098529,24.4213962 C57.8098529,25.8289319 57.9255288,26.9471327 58.1760151,27.795423 C58.4267913,28.6437133 58.8509364,29.2606517 59.4484505,29.6653726 C60.0462546,30.0509591 60.8559862,30.2631766 61.8970698,30.2437523 C62.8995946,30.2437523 63.7093263,30.0318247 64.3071303,29.6462382 C64.9049343,29.2412274 65.3290795,28.6242891 65.59899,27.7762887 C65.8686107,26.9277085 66.0037109,25.8095076 66.0037109,24.4022619 L66.0037109,22.4934637 C66.0037109,21.0859281 65.8686107,19.9485929 65.59899,19.1003026 C65.3290795,18.2520123 64.8855101,17.6350739 64.3071303,17.2300631 L64.3071303,17.2300631 Z" id="Fill-6" fill="#FFFFFF"></path>
                <g id="Group-10" transform="translate(102.153141, 16.632259)">
                    <mask id="mask-4" fill="white">
                        <use xlink:href="#path-3"></use>
                    </mask>
                    <g id="Clip-9"></g>
                    <path d="M5.05147303,6.05399792 L2.89218864,6.05399792 L2.89218864,5.10916605 C2.89218864,5.10916605 2.91132301,3.60566862 2.96901603,3.18152348 C3.02699896,2.75708841 3.12354054,2.4680435 3.27777514,2.27525025 C3.41258546,2.10159137 3.64393736,2.0053397 3.97154092,1.98620533 C4.28030004,1.98620533 4.51165193,2.082457 4.66588653,2.25582597 C4.81983122,2.42948485 4.9163728,2.73795405 4.97406582,3.18152348 C5.03204875,3.62480299 5.05147303,6.05399792 5.05147303,5.10916605 L5.05147303,6.05399792 Z M6.36217721,0.559245378 C5.82235611,0.192793249 5.05147303,0 4.02952385,0 C0.642160971,0.00956718377 0.0658106277,2.41035048 0,5.68754579 L0,8.02048906 C0,9.92928718 0.308759113,11.3559572 0.886848944,12.2619405 C1.46522869,13.1682138 2.48717787,13.6309176 3.95240656,13.6309176 C5.16685906,13.6309176 6.09255657,13.3224484 6.76718799,12.7249342 C7.44210931,12.1271302 7.76971288,11.220857 7.76971288,10.0064045 C7.76971288,9.81361123 7.76971288,9.65937663 7.75057851,9.54370068 L5.18628335,9.38946608 C5.16685906,10.1797734 5.09003168,10.7584431 4.9163728,11.105471 C4.7621382,11.4522089 4.453669,11.6258678 4.01009957,11.6258678 C3.68249601,11.6258678 3.43171983,11.5296161 3.27777514,11.3368229 C3.12354054,11.1440296 3.02699896,10.8352705 2.96901603,10.4111253 L2.89218864,8.50232722 L2.89218864,7.82769581 L2.89218864,7.80856144 L7.84712009,7.80856144 L7.84712009,5.55273548 C7.84712009,4.16462409 7.75057851,3.08498189 7.51922661,2.29438462 C7.28787471,1.50407725 6.90228822,0.925697508 6.36217721,0.559245378 L6.36217721,0.559245378 Z" id="Fill-8" fill="#FFFFFF" mask="url(#mask-4)"></path>
                </g>
                <path d="M55.6312312,12.0245294 C55.6312312,12.0245294 54.2779096,17.9590825 53.7418574,21.0089847 L53.6647401,21.0089847 C53.1921792,18.1362204 51.8139249,12.0245294 51.8139249,12.0245294 L48.8640432,12.0245294 L52.2377801,24.2093526 L52.2572044,24.2093526 L52.2572044,30.0317088 L55.1685274,30.0317088 L55.1685274,24.1902183 L58.5811129,12.0245294 L55.6312312,12.0245294 Z" id="Fill-11" fill="#FFFFFF"></path>
                <path d="M72.6167223,27.3328062 C72.4981472,27.5737253 72.31869,27.7798546 72.0960355,27.9306102 C71.7104491,28.1947225 71.0010279,28.3312723 70.7270585,27.79551 C70.5922482,27.5447338 70.5342653,27.1205887 70.5342653,26.5422089 L70.5342653,16.8831222 L67.5652492,16.8831222 L67.5652492,26.7155779 C67.5884424,28.3353311 67.8409581,30.2574653 70.1101201,30.2629737 C71.3634212,30.2629737 72.3082531,29.6460353 72.9443258,28.4315828 L73.0023088,28.4315828 L73.252795,30.0510461 L75.5666039,30.0510461 L75.5666039,16.8831222 L72.6167223,16.8831222 L72.6167223,27.3328062 Z" id="Fill-13" fill="#FFFFFF"></path>
                <path d="M97.8537354,24.3637322 C97.8537354,25.3274085 97.8151768,26.0794472 97.7383494,26.6192683 C97.6609422,27.1593793 97.5261319,27.5449658 97.3333386,27.7763177 C97.1405454,28.0073796 96.8897692,28.1233455 96.5813,28.1233455 C95.9837859,28.1036313 95.6442958,27.8340107 95.4054061,27.4289999 L95.4054061,19.9486219 C95.5016578,19.5821697 95.6750268,19.2931248 95.9260928,19.0617729 C96.3499481,18.5854431 97.0747347,18.5796448 97.4104559,19.0617729 C97.5838249,19.2931248 97.6800765,19.6978457 97.7574838,20.257091 C97.8151768,20.8163364 97.8537354,21.6066438 97.8537354,22.6477273 L97.8537354,24.3637322 Z M99.7048405,17.1721092 C99.2998297,16.8059469 98.7600086,16.6131537 98.0465287,16.6131537 C97.5040983,16.611994 96.9738444,16.7728967 96.523607,17.0758575 C96.0414789,17.3843267 95.694451,17.7890476 95.4245405,18.2905999 L95.4054061,18.2905999 L95.4054061,11.349753 L92.5517761,11.349753 L92.5517761,30.0318537 L95.0003953,30.0318537 L95.3088645,28.7788426 L95.3668475,28.7788426 C95.6022582,29.2200927 95.956244,29.5871246 96.3885067,29.8390605 C96.8512105,30.0895467 97.352473,30.224647 97.9117184,30.224647 C98.9142432,30.224647 99.6468576,29.7619432 100.128986,28.8365356 C100.5914,27.9108381 100.842176,26.4650337 100.842176,24.5176769 L100.842176,22.4357997 C100.842176,20.9702811 100.745924,19.8138115 100.572265,18.9843657 C100.398606,18.1554997 100.109561,17.5576957 99.7048405,17.1721092 L99.7048405,17.1721092 Z" id="Fill-15" fill="#FFFFFF"></path>
                <polygon id="Fill-17" fill="#FFFFFF" points="83.6060244 12.0245294 74.8337867 12.0245294 74.8337867 14.4154556 77.7836683 14.4154556 77.7836683 30.051133 80.675567 30.051133 80.675567 14.4154556 83.6060244 14.4154556"></polygon>
                <path d="M87.8284865,27.3328062 C87.7099114,27.5737253 87.5304542,27.7798546 87.3077998,27.9306102 C86.9222133,28.1947225 86.2127921,28.3312723 85.9388227,27.79551 C85.8040124,27.5447338 85.7460295,27.1205887 85.7460295,26.5422089 L85.7460295,16.8831222 L82.7770135,16.8831222 L82.7770135,26.7155779 C82.8002066,28.3353311 83.0527223,30.2574653 85.3218843,30.2629737 C86.5751854,30.2629737 87.5200173,29.6460353 88.1560901,28.4315828 L88.214073,28.4315828 L88.4645593,30.0510461 L90.7783681,30.0510461 L90.7783681,16.8831222 L87.8284865,16.8831222 L87.8284865,27.3328062 Z" id="Fill-19" fill="#FFFFFF"></path>
                <polygon id="Fill-21" fill="#FFFFFF" points="52.0892858 9.26071498 53.5348003 3.82075631 54.9162437 9.26071498 56.297687 9.26071498 58.0910991 1.47563663 56.5812235 1.47563663 55.5801482 6.66945775 54.0917264 1.47563663 52.9138031 1.47563663 51.4253812 6.66945775 50.424016 1.47563663 48.9141405 1.47563663 50.7078425 9.26071498"></polygon>
                <path d="M61.2128132,3.94399903 L62.1434392,6.59961731 L60.2821871,6.59961731 L61.2128132,3.94399903 Z M59.3495317,9.26074397 L59.786723,8.01324119 L62.6386135,8.01324119 L63.0760947,9.26074397 L64.6555498,9.26074397 L61.6784161,1.47566562 L60.7469203,1.47566562 L57.7700766,9.26074397 L59.3495317,9.26074397 Z" id="Fill-23" fill="#FFFFFF"></path>
                <polygon id="Fill-25" fill="#FFFFFF" points="67.9214674 9.26071498 67.9214674 2.88926051 70.0416133 2.88926051 70.0416133 1.47563663 64.3343533 1.47563663 64.3343533 2.88926051 66.4544992 2.88926051 66.4544992 9.26071498"></polygon>
                <path d="M71.819457,9.0010964 C72.240413,9.22780967 72.7471839,9.34087639 73.3397694,9.34087639 C73.8288555,9.34087639 74.265177,9.23592728 74.6487341,9.02515932 C75.0325811,8.81468128 75.3503276,8.50824148 75.6022634,8.10699959 C75.8533295,7.70517788 76.0293077,7.22073048 76.1290384,6.65336749 L74.6087259,6.65336749 C74.5553816,6.91371085 74.4698568,7.13520565 74.3518615,7.31727206 C74.2341562,7.49933847 74.0891988,7.63762776 73.9178593,7.73213994 C73.7468096,7.82665212 73.5537265,7.87390821 73.3397694,7.87390821 C73.0649303,7.87390821 72.8309692,7.81766476 72.638176,7.70517788 C72.4456726,7.5929809 72.298396,7.42975895 72.1966359,7.21551202 C72.0948759,7.00126508 72.0441408,6.74237129 72.0441408,6.43912056 L72.0441408,4.30273943 C72.0441408,3.9994887 72.0948759,3.73972516 72.1966359,3.52373874 C72.298396,3.30775232 72.4456726,3.14366062 72.638176,3.03117373 C72.8309692,2.91868684 73.0649303,2.8624434 73.3397694,2.8624434 C73.5505374,2.8624434 73.7404315,2.91056923 73.9100316,3.00711082 C74.0796317,3.10336248 74.2240092,3.24252152 74.3437439,3.42458793 C74.4631887,3.60665433 74.5516127,3.82611973 74.6087259,4.08327403 L76.1290384,4.08327403 C76.0330766,3.51562113 75.8591278,3.03117373 75.6069021,2.62935201 C75.3555461,2.22782021 75.0372198,1.92225016 74.6516333,1.71119229 C74.2660468,1.50071424 73.8288555,1.39547522 73.3397694,1.39547522 C72.7471839,1.39547522 72.240413,1.5097016 71.819457,1.73815435 C71.397921,1.9666071 71.0766956,2.29768964 70.8552008,2.73140197 C70.6339959,3.16511431 70.5235384,3.6889901 70.5235384,4.30273943 L70.5235384,6.43912056 C70.5235384,7.05286989 70.6339959,7.57674568 70.8552008,8.01045801 C71.0766956,8.44417034 71.397921,8.77438314 71.819457,9.0010964" id="Fill-27" fill="#FFFFFF"></path>
                <polygon id="Fill-29" fill="#FFFFFF" points="78.9351224 6.10716827 81.7301896 6.10716827 81.7301896 9.26057002 83.1968679 9.26057002 83.1968679 1.47578158 81.7301896 1.47578158 81.7301896 4.69354439 78.9351224 4.69354439 78.9351224 1.47578158 77.4678643 1.47578158 77.4678643 9.26057002 78.9351224 9.26057002"></polygon>
                <mask id="mask-6" fill="white">
                    <use xlink:href="#path-5"></use>
                </mask>
                <g id="Clip-32"></g>
                <polygon id="Fill-31" fill="#FFFFFF" mask="url(#mask-6)" points="86.6766555 9.26074397 88.1975478 9.26074397 88.1975478 1.47566562 86.6766555 1.47566562"></polygon>
                <polygon id="Fill-33" fill="#FFFFFF" mask="url(#mask-6)" points="94.4407441 2.88937647 94.4407441 1.47575259 88.7329043 1.47575259 88.7329043 2.88937647 90.8533401 2.88937647 90.8533401 9.26083095 92.3203083 9.26083095 92.3203083 2.88937647"></polygon>
                <path d="M100.962113,6.50864209 C100.962113,6.78000221 100.907899,7.01918181 100.798891,7.22618088 C100.689884,7.43317994 100.535359,7.59292292 100.335898,7.70511989 C100.135567,7.8178967 99.9039249,7.87385022 99.6395227,7.87385022 C99.3754105,7.87385022 99.1437687,7.8178967 98.9434376,7.70511989 C98.7439764,7.59292292 98.5891619,7.43317994 98.4804439,7.22618088 C98.371436,7.01918181 98.317222,6.78000221 98.317222,6.50864209 L98.317222,4.22788346 C98.317222,3.95652334 98.371436,3.71734375 98.4804439,3.51034468 C98.5891619,3.30334562 98.7439764,3.14360264 98.9434376,3.03111575 C99.1437687,2.91862886 99.3754105,2.86238542 99.6395227,2.86238542 C99.9039249,2.86238542 100.135567,2.91862886 100.335898,3.03111575 C100.535359,3.14360264 100.689884,3.30334562 100.798891,3.51034468 C100.907899,3.71734375 100.962113,3.95652334 100.962113,4.22788346 L100.962113,6.50864209 Z M102.482426,4.26528246 C102.482426,3.69415058 102.364721,3.19201839 102.12902,2.75801614 C101.893899,2.32430381 101.560787,1.98887255 101.130844,1.75143244 C100.70061,1.51399234 100.203697,1.39541724 99.6395227,1.39541724 C99.0756387,1.39541724 98.578725,1.51399234 98.1484917,1.75143244 C97.7182583,1.98887255 97.3854363,2.32430381 97.1500256,2.75801614 C96.9143249,3.19201839 96.7966196,3.69415058 96.7966196,4.26528246 L96.7966196,6.4712431 C96.7966196,7.04237498 96.9143249,7.54450717 97.1500256,7.97850942 C97.3854363,8.41193183 97.7182583,8.74765301 98.1484917,8.98509312 C98.578725,9.22224331 99.0756387,9.34110832 99.6395227,9.34110832 C100.203697,9.34110832 100.70061,9.22224331 101.130844,8.98509312 C101.560787,8.74765301 101.893899,8.41193183 102.12902,7.97850942 C102.364721,7.54450717 102.482426,7.04237498 102.482426,6.4712431 L102.482426,4.26528246 Z" id="Fill-34" fill="#FFFFFF" mask="url(#mask-6)"></path>
                <polygon id="Fill-35" fill="#FFFFFF" mask="url(#mask-6)" points="108.597016 1.47578158 108.597016 7.17550379 105.828911 1.47578158 104.035499 1.47578158 104.035499 9.25535156 105.438106 9.25535156 105.438106 3.64347349 108.195484 9.25535156 110.000203 9.25535156 110.000203 1.47578158"></polygon>
            </g>
        </g>
    </g>
</svg>